<svg xmlns="http://www.w3.org/2000/svg" viewBox="0 0 353.24 337.89"><defs><style>.cls-1{fill:#b5ad21;}</style></defs><g id="Calque_2" data-name="Calque 2"><g id="Calque_1-2" data-name="Calque 1"><path class="cls-1" d="M41.55,49.06H57.87v1.28a11.72,11.72,0,0,1-5,10.06q-5,3.6-13.21,3.6t-13.5-3.34q-5.11-3.33-5.12-8.82V29a12,12,0,0,1,5-10q5-3.78,13.21-3.78a26.3,26.3,0,0,1,10.35,2q4.86,2.06,6.49,5.84h22a26,26,0,0,0-7.42-12.11,38.16,38.16,0,0,0-13.54-8A52.65,52.65,0,0,0,39.25,0,54.36,54.36,0,0,0,18.58,3.6,31.59,31.59,0,0,0,4.9,13.71,24.6,24.6,0,0,0,0,29V51.84A22.32,22.32,0,0,0,4.93,66.21q4.94,6.17,13.88,9.55a59,59,0,0,0,20.88,3.38,54.32,54.32,0,0,0,20.67-3.6A31.64,31.64,0,0,0,74.05,65.41a24.81,24.81,0,0,0,4.89-15.28V35H41.55Z"/><path class="cls-1" d="M155.4,3.55A55.5,55.5,0,0,0,134.66,0a55.44,55.44,0,0,0-20.73,3.55,31.43,31.43,0,0,0-13.77,10,24.15,24.15,0,0,0-4.89,15.06v22a24.18,24.18,0,0,0,4.89,15,31.32,31.32,0,0,0,13.77,10,55.44,55.44,0,0,0,20.73,3.55,55.5,55.5,0,0,0,20.74-3.55,31.29,31.29,0,0,0,13.76-10,24.13,24.13,0,0,0,4.9-15v-22a24.1,24.1,0,0,0-4.9-15.06A31.4,31.4,0,0,0,155.4,3.55ZM153,50.93a11.72,11.72,0,0,1-5,9.87q-5,3.72-13.32,3.73T121.34,60.8a11.74,11.74,0,0,1-5-9.87V28.21a11.71,11.71,0,0,1,5-9.89q5-3.71,13.32-3.71T148,18.32a11.7,11.7,0,0,1,5,9.89Z"/><polygon class="cls-1" points="214.42 0.8 194.09 0.8 194.09 78.34 203.15 78.34 214.42 78.34 266.36 78.34 266.36 64.26 214.42 64.26 214.42 0.8"/><path class="cls-1" d="M350.2,44.85A20.56,20.56,0,0,0,342,38.4a51.39,51.39,0,0,0-11.28-3.6q-6.17-1.26-12.39-2.11-5.64-.8-10.54-1.73a22.92,22.92,0,0,1-7.94-2.86,6.27,6.27,0,0,1-3-5.65V22.4q0-4,5.12-6.21T316.44,14a54.17,54.17,0,0,1,13,1.68,61.36,61.36,0,0,1,13,4.83l8.61-12.37a75.85,75.85,0,0,0-16.84-6A78.12,78.12,0,0,0,316.44,0q-19,0-29.38,6.21T276.67,23.79v.05q0,7,3.3,11.25a21.22,21.22,0,0,0,8.72,6.48,52.57,52.57,0,0,0,11.87,3.31q6.46,1,12.76,1.73c3.51.39,6.77.87,9.76,1.44a20.18,20.18,0,0,1,7.23,2.64,5.78,5.78,0,0,1,2.75,5.15v0q0,4.43-5.49,6.85t-15.43,2.43a70.36,70.36,0,0,1-16.77-2A53.05,53.05,0,0,1,281,57.49l-9.42,12.05a61.68,61.68,0,0,0,11.65,5.2A82.91,82.91,0,0,0,297,78a100,100,0,0,0,15.1,1.12q19.58,0,30.34-6.16t10.76-17.36v-.1Q353.24,49,350.2,44.85Z"/><polygon class="cls-1" points="1.35 278.47 28.86 278.47 28.86 337.89 47.9 337.89 47.9 278.47 75.41 278.47 75.41 265.29 1.35 265.29 1.35 278.47"/><path class="cls-1" d="M145.43,306a22.64,22.64,0,0,0,9.76-7.59A19.09,19.09,0,0,0,158.7,287a19.32,19.32,0,0,0-3.47-11.44,22.55,22.55,0,0,0-9.76-7.59,37.19,37.19,0,0,0-14.7-2.69H86.52v72.65h19V308.68H117.1l22.77,29.21h23.07L138.8,308A31.42,31.42,0,0,0,145.43,306Zm-39.87-27.56h23.69a10.5,10.5,0,0,1,7.19,2.35,7.84,7.84,0,0,1,2.67,6.19,8.06,8.06,0,0,1-2.74,6.19,10.4,10.4,0,0,1-7.12,2.35H105.56Z"/><polygon class="cls-1" points="186.14 265.29 179.26 265.29 179.26 337.89 186.14 337.89 198.3 337.89 246.93 337.89 246.93 324.71 198.3 324.71 198.3 308.43 239.29 308.43 239.29 295.25 198.3 295.25 198.3 278.47 246.93 278.47 246.93 265.29 198.3 265.29 186.14 265.29"/><polygon class="cls-1" points="327.86 265.29 308.62 314.22 289.38 265.29 264.3 265.29 264.3 337.89 281.59 337.89 281.59 287.3 300.21 329.8 317.02 329.8 335.64 286.33 335.64 337.89 352.94 337.89 352.94 265.29 327.86 265.29"/><path class="cls-1" d="M114.59,251.59H163.9l-51.6-64a67.45,67.45,0,0,0,14.17-4.25q13.36-5.77,20.87-16.23a40.84,40.84,0,0,0,7.5-24.44,41.16,41.16,0,0,0-7.43-24.45q-7.42-10.45-20.86-16.22T95.14,96.28H.54V251.59H41.23V189.15H65.91ZM41.23,124.46H91.87q9.64,0,15.37,5A16.77,16.77,0,0,1,113,142.72,17.19,17.19,0,0,1,107.09,156q-5.72,5-15.22,5H41.23Z"/><path class="cls-1" d="M344.77,118.91q-8.46-10.66-23.68-16.6t-35.72-5.92H198.79v155.2h40.69v-60.2h45.89q20.34,0,35.64-5.87T344.77,169a39,39,0,0,0,8.47-25A39.15,39.15,0,0,0,344.77,118.91Zm-40.54,39q-6.83,5.28-17.82,5.28H239.48V124.57h46.93q11.14,0,17.9,5.28A17.06,17.06,0,0,1,311.06,144,16.74,16.74,0,0,1,304.23,157.93Z"/></g></g></svg>