<svg xmlns="http://www.w3.org/2000/svg" viewBox="0 0 93.38 93.34"><defs><style>.cls-1{fill:#b5ad21;}</style></defs><g id="Calque_2" data-name="Calque 2"><g id="Calque_1-2" data-name="Calque 1"><path class="cls-1" d="M85.07,46.15a45.67,45.67,0,0,0-1.31-9.55,4.15,4.15,0,1,1,8.12-1.68c3.47,14.83,1,28.59-8.58,40.46-12.39,15.29-28.7,21-47.8,16.4C18.63,87.7,7.28,76.75,2.21,60.09-2.69,44,.63,29.25,11.42,16.35A44.78,44.78,0,0,1,39,.68,45.43,45.43,0,0,1,64.62,3.61a4.06,4.06,0,0,1,2.76,3.77,3.9,3.9,0,0,1-2.32,3.84,4.39,4.39,0,0,1-3.81-.05A38.35,38.35,0,0,0,8.9,52.66c4.18,26.65,34.28,40.86,57.37,26.9C78.71,72,84.79,60.64,85.07,46.15Z"/><path class="cls-1" d="M22,38.88a7.85,7.85,0,0,1,5.22-7.49A7.72,7.72,0,0,1,36,34.09C38.92,38,41.65,42,44.45,46c1.47,2.09,2.79,2.13,4.42.13Q66.51,24.4,84.16,2.64c1.63-2,3.7-2.74,5.83-2a4.94,4.94,0,0,1,2.37,7.65c-2,3-4.14,5.94-6.22,8.91L50.52,68.08c-2.12,3-5.39,3.78-8.05,1.86a7.29,7.29,0,0,1-1.67-1.83l-17-24.34A8,8,0,0,1,22,38.88Z"/></g></g></svg>