<svg xmlns="http://www.w3.org/2000/svg" viewBox="0 0 135.53 95"><defs><style>.cls-1{opacity:0.53;}.cls-2,.cls-3{fill:#fff;}.cls-3{font-size:12.21px;font-family:ROGFonts-Regular, ROG Fonts;}</style></defs><g id="Calque_2" data-name="Calque 2"><g id="Calque_1-2" data-name="Calque 1"><g class="cls-1"><polygon class="cls-2" points="51.37 12.67 45.12 0 9.57 0 9.57 12.67 9.57 30.45 9.57 88.52 135.53 88.52 135.53 12.67 51.37 12.67"/><polygon class="cls-2" points="17.83 85.87 13.54 85.87 18.91 75.14 23.21 75.14 17.83 85.87"/><polygon class="cls-2" points="25.96 85.87 21.67 85.87 27.05 75.14 31.34 75.14 25.96 85.87"/><polygon class="cls-2" points="35.63 85.87 31.34 85.87 36.71 75.14 41.01 75.14 35.63 85.87"/><polygon class="cls-2" points="45.3 85.87 41.01 85.87 46.38 75.14 50.67 75.14 45.3 85.87"/><text class="cls-3" transform="translate(23.21 53.06)">Soiree XXX</text></g><polygon class="cls-2" points="41.81 19.15 35.56 6.48 0 6.48 0 19.15 0 36.93 0 95 125.97 95 125.97 19.15 41.81 19.15"/><polygon points="8.27 92.35 3.97 92.35 9.35 81.62 13.64 81.62 8.27 92.35"/><polygon points="16.4 92.35 12.11 92.35 17.48 81.62 21.77 81.62 16.4 92.35"/><polygon points="26.07 92.35 21.77 92.35 27.15 81.62 31.44 81.62 26.07 92.35"/><polygon points="35.73 92.35 31.44 92.35 36.82 81.62 41.11 81.62 35.73 92.35"/></g></g></svg>