<svg xmlns="http://www.w3.org/2000/svg" xmlns:xlink="http://www.w3.org/1999/xlink" viewBox="0 0 2320.47 1244.05"><defs><style>.cls-1{fill:none;}.cls-2{clip-path:url(#clip-path);}.cls-3{fill:#1e1e1f;}.cls-4{fill:#232324;}.cls-5{fill:#343337;}.cls-6{fill:#2c2c2f;}.cls-7{fill:#292829;}.cls-8{fill:#202021;}.cls-9{fill:#272629;}.cls-10{fill:#3c3a3d;}.cls-11{fill:#777779;}.cls-12{fill:#9b999c;}.cls-13{fill:#4d4d4e;}.cls-14{fill:#1c1c1d;}.cls-15{fill:#c5c5c5;}.cls-16{fill:#e2e2e4;}.cls-17{fill:#1a1a1a;}.cls-18{fill:#fdfdfd;}</style><clipPath id="clip-path" transform="translate(476.21 -37.97)"><rect class="cls-1" width="1918.37" height="1078.88"/></clipPath></defs><g id="Calque_2" data-name="Calque 2"><g id="Calque_1-2" data-name="Calque 1"><g class="cls-2"><path class="cls-3" d="M350.88,1210.38l-14.7-.44a11.63,11.63,0,0,0-13.51-3.75c-14.5,6.41-26,.09-37.53-7.1-16.21-18-21.35-17.89-38.22-.12-4.54,4.78-9,10.34-17.5,8.26-15.08-3.68-50.54-38.06-49.48-52.91,1.3-18-7.41-29.77-17.64-41.48-8-9.19-8.25-17.81-.87-26.81s9.77-18.48,5.2-29.6c-4.75-11.55.12-20.79,8.42-28.48,5-4.66,10.27-8.83,14.42-14.55,5.13-7.09,10.39-8.34,14.65,2,5.79,14,13.56,9.8,20.56.71,2.64-3.43,3.78-8,6.51-11.37,6.71-8.22,15.67-15.54,7.39-27.67-9.51-13.91-19.64-26.52-39.53-21.76a105.58,105.58,0,0,1-16.66,2.62c-4.89.36-8.28-2.62-10-7.06s1.13-7.21,4.3-9.35c18.13-12.3,32.27-32.15,58.9-27.94A30.21,30.21,0,0,0,260.12,906c6.39-5.81,15-8.44,22.39-6.92,14.19,2.93,25-2.83,36.11-9.36,5.44-6,4.83-10-3.84-11.25-2.71-3.42-5.26-7.93-10.12-7.47-19.66,1.88-39.74-3.15-59.1,3.55-22.77-8-47.12-10.68-69.29-21-3.86-1.79-9.94,0-14.64,1.39-44.12,12.85-82.71,8.4-102.91-38.15-10.21-23.52-7.73-76,12.07-92,23.23-18.66,45.39-39.08,74-50.57,17.35-7,37.13-17.6,43-34,7.45-20.94,22.13-29.52,38.21-39.24q6.94,8.26,15.81,2.12c4.83,1.86,7.88-1.44,11.25-3.85,4.69,6.13,10.81,4.72,17.12,3.55C291,599,311.09,587.42,333.55,597c3.5,1.5,10.26-1.19,13.91-4,26-20.16,54.25-37.65,74.58-64.77,7.78-10.37,9.07-18.39,1.92-28.41l18.39-12.09c15.49-10.21,15.77-22.42,4.77-36.12-7.71-11.3-18.93-17.72-31.3-22.55-11-17.81-6.38-33.18,13.53-35.49,19.69-2.29,32.29-13.39,45.86-25.09,7.91-6.83,8.6-13.06,2.12-20.7,3.07-8.2,13.52-1.39,17.16-8.43,6.32,6.28,12.54,2.81,18.81-.15,12-5.64,24.65-7.94,37.67-10.07,17.1-2.79,34.57-6.11,50.49-12.62,13.85-5.67,28.79-13.08,31.62-31.22l45.9-1.84c1,10.8-14,7-15.15,18.72-3,31.66-30.52,44.16-54.33,53.24-26,9.92-54.23,14-79.82,27.06-21.21,10.86-38.42,24.81-52.1,44.1-6.81,9.59-7,17.24-.21,27.09,15.37,22.28,13.85,29.44-6.75,45.79-12.94,10.27-23.75,21.27-13.2,39.44,5.22,9-.9,13.6-7,18.57-51.82,42.32-107.79,78.73-163.6,115.4-4.57,3-9.16,3.17-14.28,2.87-23.28-1.38-29.17,3-34.46,25.87-1.68,7.23-1.1,15.33-8.75,19.77-10.52,6.11-15,15-17.06,27.2-2.84,16.9-15.15,25.34-27.76,18.79-29.11-15.1-56-6.55-82.58,5.29-12.77,5.69-23.25,14.63-20.48,31.91s11.06,28.15,29.07,32c26.05,5.53,49.74,3.27,69.72-16.16,6.08-5.92,14.05-8,21.66-10.75,13.43-4.86,21.19.2,25.34,13.65,9.28,30.15,32.08,38.07,58.87,20,8.88-6,14.65-6.06,22.72,1.38,24.69,22.77,51.94,40.74,87.43,41.07,4.15,0,8.24,2.77,12.41,4,3.74,1.14,7.55,2.53,7.74,7,.18,4.27-3.55,6.46-6.71,8.34-10.62,6.32-22.59,5.21-32.82,1.4-19.1-7.13-36.94,7.13-55.9,1.12-4.76-1.51-11,3.6-14.71,9.69-5,8.37-.6,14.35,5.85,12.47,22.25-6.49,41.05,8.9,62.09,7.6,13.28-.82,21.1,7,26.29,17.53,5.55,11.28-3.6,17.92-9.09,26.19-8.3,12.51-23.62,12.17-33.76,20.8-9.36-7.34-22.6.06-31.68-8.31-15.57-12.42-31.22-1.16-45,2.88-8.41,2.47-18.4-6.17-19.27-.46-1.28,8.34-10.81,8.77-10.57,16.2-4.34,13.12-9.46,26.52-23.42,31.53-17.29,6.2-13.49,14.35-4.65,24.62,4.07,4.73,7.59,9.92,11.46,14.83,6.35,8,13.74,9.43,23,4.51,26.22-13.92,83-5.48,105.81,15.27,5.18,4.72,11,7.63,18.48,7.55,16.5-.18,30.86,6.25,45.79,13.06,14.65,6.68,25.22,24.57,44.58,19.13,24.65-6.92,47.85,3.66,71.48,6.17,23.3,2.48,50.65-9.21,58.58-33,8.72-26.15,18.06-29.84,34.54-13.64-20.07,5.6-20.61,6.09-21.52,19.34,16.51-7.1,35.3-6.56,51.25-12.43,17.74-6.53,34.38-10,52.94-9.58,11.84.25,23.21-4.31,34.82-8,22.33-7,42.42-21,67.67-20.61,13.66.21,28.1-4.82,40.44-12.7,3.08-2,7-4.12,4.13-8.73-2.32-3.78-5-1.13-7.82,0a150.45,150.45,0,0,1-45.13,9.44c-9.25.51-13-3.66-6-12.16,15.86-4.71,32.51-6.82,47.45-14.55l5.44-2.66,4.56,5.9,5.27.71,7.09,8.88c5,4.6,6.06,15.77,17.14,10.46,11.17-5.72,24.65-9,18.57-27.49-2.76-8.42-8.11-11.74-14.54-15.66-14.31-8.7-14.23-17.87.42-26.13,9.32-5.25,19.92-7,30.32-9.34,43.68-9.78,88.5-16.41,126-44,5.17-3.8,10.33-4.22,15.27.39,6.14,5.72,13.25,12.45,20.88,4.5,10-10.38,31.31-11.89,27.62-33.29-1.59-9.21,2.34-13.81,10.46-17.12,9.16-3.72,18.67-6.63,26.74-13,20.24-16,39-34.43,64.72-42,6.59-1.94,9.65-6.19,9.31-12.26-.84-15.3,7-20.21,20.83-18.64,7.09.81,11.85-3.34,16.63-7.32,7.78-6.47,16-12.75,26-14.31,14.69-2.29,27.65-9.45,38.86-17.41a48.06,48.06,0,0,1,36.91-8.6c19,3.13,32.86-3.76,45.91-15.56,10.93-9.89,23.85-15.31,38.11-19,24.67-6.4,50.26-8,74.56-16.91,17.43-6.42,32.19-19.07,51.9-20.38,16.8-1.12,18-5.45,7.74-19.66-9.12-12.67-19.72-24.57-26.9-38.27-15.93-30.43-32.68-60-54-87.21-9.31-11.84-17.68-11.12-29-6.31-8.89,3.79-14.56,16.69-25.8,12.23-10-4-14.07-15.5-20.78-23.65-7.15-8.7-13.18-18.37-20.71-26.72-15.11-16.76-22.69-41.3-48.45-47.43-2-.48-4.61-5-4.36-7.45,2.7-26.71-10.26-21.95-27.12-15.09-16.4,6.67-33.61-.33-33.95-12.63-.45-16.08-9.1-22.06-23.25-23.67-9.63-1.1-18.86-3.71-24.06-12.57-10.37-17.68-28.4-23.94-45.51-31.58-19.43-8.68-41.45-2.91-60.63-9-24.18-7.71-51.54,1.5-73.9-16.41-6.16-4.94-17.61-3.19-24.84-10.72-4.75-4.94-11.88-6.34-19.28-4.39-20.09,5.3-39.36.84-59-4-23.67-5.87-47.77-17-71.85.58-5.62,4.1-14.26,2.24-19.71-1.71-11.56-8.39-21.81-5.42-33.35-.26-6.81,3-15.09,9.74-22.51,2.27-9.92-10-19.92-6.28-31.21-3.74-15.87,3.59-32.3,12.27-48.28-.23,1.35-7.3,25.65,5.24,12.57-14.54,21.26-1.76,41.67-11.56,63.7-6.18,15.86,3.87,29.26-1.3,40.62-12.54l5.9-4.18c6.13,10.89,15.16,12.82,27.09,10.9a125.7,125.7,0,0,1,44.6.58c34.69,6.9,69.41,13.62,104.12,20.41,6.5,7.83,11.11,19,24.84,14.15,11.71,11.26,20.83,3.32,30-4.05,14.51-1.28,26.58,5.58,37.7,13.07,24.91,16.78,54,13.74,81.38,19,4.19,1.71,9.76-.59,12.82,4.41,4.55,8.17,11,11.14,20.25,8.18,9.56-3.06,15.8-2,13.72,10.87-1.15,7.17,1.22,13,10.62,8.39l2.28,3c12.8,11.4,31.31,14.82,41.61,29.72-.23,1.75-.47,3.51-.71,5.27-5.42,6.05-4.81,10,3.86,11.24,14.23,8.08,25.58-3.49,38.31-5.62l11.94-9.13,12-9.05c2,2.4,4.19,4.21,7.57,3.67,14,5.47,28.77,8.35,43.33,5,15.32-3.51,24.43,1.87,33.05,14,15.9,22.45,33.59,43.63,49.7,65.93,7.84,10.85,16.67,16.09,30.14,13.12,9.94-2.19,17.6-.33,16.71,12.56-.34,5,4.43,5.38,7.27,7.48.84,4.37,1.69,8.75,2.59,13.33l14.21-7.27,3.5,3c1.81,7.19,2.67,14.92,10.46,18.79,1.37,3.47,2,7.56,4.25,10.32,9.09,11.14,6.74,19.89,2.35,34-6.47,20.69-13.1,44.69,2,67.39,8.39,12.63,13.5,28.41.29,42.68l-6,4.56-9,6.84c-18.08-8.69-32.93-.09-44.05,12-8.39,9.1-17.21,13.76-28.36,14.34-10.58.56-18.92,4.73-26.53,11.39-23.12,4.8-43.57,20.1-67.23,20.6-24.31.52-42.8,15.47-64.91,20.74-4.06,1-2,5-.66,7.83l-6.12,4.88-4.69-.42c-1.2-1.35-2.39-2.71-3.58-4.06-5.47-.05-11,.4-16.4-.25-9.88-1.2-17,7.66-18.22,12.27-2.2,8.28,9,5.22,13.78,8.17,4.19,2.58,11.91-.32,12.81,7.22-4.44,5.73-13.11,5.13-16,12.27-12.76,2.46-23.14,8.19-28.61,20.72-10.63,5-21.45,3.57-32.31,1-10.56-9.33-20.09-3.94-28.42,3-20.31,17-42.43,30.69-67.54,39.2-6.54,2.21-11.3,6.18-12.89,12.47-2.57,10.16-9.6,17.3-15.4,25.26-2.87,3.95-8.57,7-6.16,12.57,2.88,6.66,9.1-1.42,13.28,1.76a10.54,10.54,0,0,0,1.6,2.43l-14.43,6.2c-2.93-1.25-5.2.1-7.38,1.84-8.29,9.82-25.76-.08-31.69,14.78.14,2.54.29,5.07.43,7.61l-11,1.82c-10.59,10.53-30.63,4.07-37.69,21,2.93,17.81-8,30.07-28.4,26.8-15.84-2.55-31-.67-46.45-.16-5.52.18-16.17-.38-9.31,11.53.68,1.18,0,3.15-.06,4.76-16-12.88-16.41,29.51-34.79,9.85-1.9-2-5.48,1.67-7.42,4.11-18.23,23-38.63,43.12-68.06,51.3-1.78.5-4.23,1.12-5,2.45-15.54,28-46.16,26.43-70.75,37.18-30.49,13.33-62.58,12.81-94.23,17.22-9.29,1.29-21,4.34-26.3,10.89-8.37,10.32-16.86,8.81-26.82,7.22-4.69-8.34-15.41-.92-20.63-7.89,9.15-5,11.59-12.4,5.76-20.85-1.89-2.74-8.2-6.71-11.3-2.77-6.64,8.43-1.64,15.84,4.8,22.26a17.89,17.89,0,0,1,1.19,1.42c-1.43,5.83,2.7,9.21,5.76,13.06l-6.86,3.29c-7.58-1.13-1-15.9-9.09-12-4.06,2-12.58,4.65-14.1,12.16-8-3.15-11.53-.58-10.28,8.07a6.34,6.34,0,0,1-3.42.72c-13.54-2.85-27-6-40.62-8.45-6.55-1.2-14.24-2.55-12.34,8.78l-4-2.33-6.68-7.41c-1.4-3.6-.33-9.31-6.85-8.67-4.8.48-10.33.63-8.64,8.17L429,1207.06l-.23,0c-1.7-1.78-3.39-2-5.09,0-6.24-9.38-17.95-10.47-25.89-17-8.84-7.23-16.62-5.37-22.39,2.13C368.75,1200.85,360,1205.61,350.88,1210.38ZM279.7,947.71c-4,3.86-10.53,6.88-5.44,12.4,7.6,8.24,16.73,7,25.33.81,5-3.55,9.19-9,4.61-14.16C296,937.43,287.3,943.87,279.7,947.71Zm-3,185.6c-5.12-5-8.33-2.31-13.13-.82-11.09,3.44-8,10.7-6.46,17.21,1.13,4.83,8.72,6.87,10.29,4.6C271.72,1148,273.85,1140.1,276.66,1133.31Z" transform="translate(476.21 -37.97)"/><path class="cls-4" d="M253,599.32c-3.37,2.41-6.42,5.71-11.25,3.85q-6.93-8.25-15.81-2.12c-26.53-7-48.61,17.62-75.16,10.65-.29-.08-1,.77-1.25,1.3-6.09,13.89-17.4,9-27.48,7.36-5.51-.89-12.22-4.92-16.24-1-23,22.36-66.14,26.43-65.23,71,.08,4-3.33,8-4.8,12.06-8,22.33-25.93,37.53-40.24,55.22-9.08,11.21-10,20.17-.21,31.17,13.36,15,20.67,32.4,26.23,52.47,6.1,22,20.52,43.73,45.67,50.56,18.82,5.11,38.32,11.53,58.34,2.5,6.4-2.89,13.86-1.44,20.19,1.29,9.9,4.26,12.55,17.38,3.92,22.58-12.47,7.52-25.65,16.45-41.49,7.11-18.46-10.9-38.91,3.71-57.81-4.16-1.73-.72-5.08,3.24-7.94,4.34C17,935.28-.6,957.05-24.46,969.62c-9.31,4.91-11.14,12.91-1.17,23.94,28.62,31.64,63.16-.49,93.31,11,7.56,2.87,16-1,22.55-6.62a23.45,23.45,0,0,1,3-2.26c6.53-4,12.11-13.1,21.17-6.35,8.31,6.19,5.6,14.9,4.42,23.94-5.69,43.69,2.1,85,27.74,121.28,9.61,13.58,11.72,22.39-3.86,31.58-15.94,9.4-14.37,20.6-3.8,34.08,8.14,10.36,20.81,19.16,18,35.37-29.18,11.73-42.06-20.36-66-25.32-12.93-2.68-24.17-18.18-39.86-21.58l-3-2.1c-9.13-22.7-28.36-17.77-46.11-16.86l-10.23-2c-9-10.07-2.82-16,5-23.05,11.82-10.62,18.87-24.71,12.05-40.17C2,1089.28-12.91,1087.2-28.09,1088.6c-3.73.34-7.46.72-11.2.79-5.88.12-10.86-1.59-14.9-6.37-15.37-18.22-26-39.46-38.08-59.72-4-6.7-3.84-14.22-2.55-21.87.9-5.34,3.57-11.92-1.92-15.79-6.22-4.39-10.19,2.29-14.39,5.34-5.16,3.74-10.31,7-16.75,7.86l-23.43-32.23,1.31.73,5.58-3.93-.24-.17c7.89,10,9,10,13.29-.4,7.89-3.29,11.91-9.9,14.94-17.36l6.26,2c7.93-1.69,11.67-7.09,13-14.63,8.25,2.34,16.42,6,24.79,6.56,5.56.35,13.16-1.28,16.5-6.94,3.66-6.21-2.93-10.15-6-14.34q-20.15-27.09-41-53.65c-3.54-4.49-6-13.38-13.67-9.92s-3.27,10.26-1.09,16.21c2.49,6.81-.85,12.48-6.91,15.51s-11.81,2.43-16.54-3.76a100.13,100.13,0,0,0-14-14.91c-25.25-21.79-27.59-31.08-14.3-59.56l11.1-3.59,7.64,2.81c10.3,6.56,15.41,26,33.41,13.46,1.74,1.7,3.62,4,6.2,2.38s1.34-4.24.27-6.46c3.72-3.79,7.52-7.55,3.77-13.43v-.12l1.52-.94,1.28-1.25c2-15.71-15.44-30.14-29.73-24.65-4.67-.32-7.14-3.34-8.93-7.22,3.48-6.19-8-12.49.22-18.71,8.59-6.45,13,1.3,19.34,4.74,15.56,8.43,23.49-6.36,34-12.84,7.72-4.76,11.61-10.67,5.93-20.18-6-10.06-2.69-18.62,5.59-26.62,8-7.73,15.48-16.25,19.75-26.86,1.74-4.33,6.59-9.35,1-13.31-4.33-3-10.05-.74-13.83,2.47C-78.16,663.92-87,667-95.2,671.38c-5.66,3-11.59,11.23-17.51,3.29-4.72-6.33,1.6-12.86,6-17.95C-91,638.62-65.87,636.27-47.81,622c1-.8,3.77-.32,5.22.48,19.9,11,25.58-14.71,40.77-15.7,3-3.27,3.32-11.11,11-6.28,7.36,15.47,10.43-2.83,15.92-2l4.63-.36c11.34,5.67,21.86,3,32.42-2.63,14.53-7.73,30,2.32,44.2-1.32,10.92-2.79,20.33-7.62,30.93.38,4.54,3.42,11.46,1.88,13.07-2.84,3.21-9.49,10.82-9.18,17.33-9,19.46.59,37.48-7.2,56.53-8.56,3.66-7.61,14.41.78,17.65-7.81,7-2.59,15.09,2.21,21.66-3.21l2.79-3.84,9.74-4.35c8.25,2,17.17,2,21.55-5.64,5.6-9.69,15-12.06,23.54-16.57,7.41-.28,17.57,3.85,16.48-10.19l9.55-4.3c13.93,4.51,27-2,40.46-3.22.83,1.1,1.66,2.21,2.5,3.31-3,23-20.54,34.28-36.72,47.62-14.59,12-28.87,17.69-47.44,12.54-7.54-2.09-16.11-4-22.89,2.76C274.48,589.74,262.92,593.1,253,599.32ZM-87.42,946c-.41,1-1.3,2.14-1,2.84s1.66,1.14,2.55,1.68l1.43-3.83Z" transform="translate(476.21 -37.97)"/><path class="cls-4" d="M1492,741.41c7.61-6.66,16-10.83,26.53-11.39,11.15-.58,20-5.24,28.36-14.34,11.12-12,26-20.65,44.05-12-16.17,11.84-2.82,20.45,3.66,29.14,7.72,10.33,15.5,4.21,22.19-1.77,7.84-7,15.09-14.69,22.56-22.11,4.43-4.4,4.37-9.82,4.06-15.65-1-17.8,3.13-36.32-12-51.42-3.07-3.07-2.44-13.12.16-18,8.08-15.17,5.09-34.56,19.71-47.38,7.64-6.7,1.13-15.68-2.23-22.4-4.25-8.5-9.08.1-13.56,1.47-3.6,1.1-6-.43-8.28-2.63,5.51-2.16,16.08-.25,9.66-12,5.14-1.34,12-1.54,6.71-9.92l9-6.83q5,6,10.89.82c4.79-4.43,12,6,16.1-2.61,12.24,3.09,22.46,9.83,22.83,23,.61,22,12.86,24.91,30.42,21.76q1.24,2,2.51,4c-6,1.35-12.2,4.55-17.8,3.66-11.79-1.88-11.49,7-14.23,13.42-3.43,8-2,12.93,7.78,9,6.84-2.75,13.33.73,19.91-.52l.16-.25c-8.65-.59-5.29,4-3,7.44,3,4.42,6.3,6.9,7.69-1.16l-.22.41c13.53,5.19,12.66,25.8,33,27.38-13.36,5.86-21.53,9.71-35,4.79-13.19-4.83-27.6,5.48-39,14.47-5.25,4.15-.64,9.09,3.1,12.43,5.31,4.74,12.82,7.79,18.81,6.57,18.74-3.83,28.21,7.75,38.26,19.64,2.74,3.25,4.49,5.55.41,9-6.58,5.6-8.49,15.32-16.84,19.44L1726.11,715c4.27-3.65,8.65-7.18,12.77-11,3.39-3.15,6.4-9.71,2.34-11-10.55-3.25-15.09-17.79-25.19-16.35-10.58,1.5-2.42,14.07-6,21.18-9.91,19.66,13.16,9.11,16.24,17.14-5.48,2.13-12.87.4-16.18,9.14l31.39-2.42,23.51,4.83c.22,1.49.43,3,.65,4.48-12.32.36-24.75,1.92-36.92.74-13.1-1.26-24.58-.92-33.35,10.48-1.32,1.71-4.52,3.62-6.2,3.15-23.8-6.72-47.69.23-71.49-.85-18.53.47-37.42-1.35-54.35,8.89l-4,2.5c-2-3.8-4.25-7.38-9.44-6.85-3-3.25-6.26-6-11-3.64a2.51,2.51,0,0,0-.61,4.42c3.93,3.47,7.8,1.74,11.55-.59l7,8.68c1,1.94,3.47,4.32.48,5.82-1.61.82-4.38-.68-6.63-1.13-1.72-2.23-3.65-4-6.8-3.42l-24.47,18q-3.66,3.88-7.33,7.75L1498.13,792c-.44-2.35-.87-4.71-1.3-7.06-12.42-6.16-24.08-4.07-35.26,3.23l-5.33-.67c-4.44-5.51-10.1-12.11-16.44-4.85-5.56,6.37,2.14,8.92,7.1,11.12a4,4,0,0,0,1.7,2.43l-44.16,2.32c-.06-.57,0-1.61-.2-1.63a21.53,21.53,0,0,0-3.12-.15c-2.18,1-5.62.12-6,3.93-3.44,1.24-4.86-2-7.19-3.24,7-14.35,19.14-22.09,34.08-25.53,13.91-3.22,29.1-3.17,41.73-8.93C1474,758.33,1492.58,761.2,1492,741.41ZM1702.7,617.1c-1.1.27-2.74.22-3.15.9s.39,2.12.65,3.22c1.1-.27,2.74-.22,3.15-.9S1703,618.21,1702.7,617.1Zm-5.79,103.83c-1.1.28-2.73.24-3.15.94s.39,2.1.67,3.2c1.09-.27,2.73-.23,3.14-.92S1697.18,722,1696.91,720.93Zm-3.85-135.75.81,3.3c1.1-.28,2.73-.25,3.16-.94s-.38-2.12-.65-3.22Z" transform="translate(476.21 -37.97)"/><path class="cls-5" d="M1244.36,205.5c14.25-8.92,30.94-13.16,46.58-15.19,8.82-1.14,20.39-6.18,21.27-8,7.73-16.13,18-10.35,29.15-6.11,15.11,5.71,29.52-4.83,45.32-2.07,19.73,3.45,20,1.63,12.21,21.93-3.56-2.8-7.33-2.79-7.72,2.07-.34,4.23,4.52,2,7,3,30.5,18.56,64.53,23.62,99.27,26.27,8.55.66,17.29,28.24,10.1,34-5.92,4.75-6,15.92-17.22,15.1-4.3-.32-4,5.39-4.94,8.83,16.34,2.59,4.71,21.93,16.36,27.33q1.58,8.64,3.13,17.29c15.75,13.62-2.16,14.5-7.61,20.11-6.16,4-9.38-.41-14.12-3.74-12.75-9-19.39-25.39-36.08-29.36,8.19-6,19-7.38,26.19-15.18,1.9,4.55.21,12.45,8.89,10.89a6.39,6.39,0,0,0,4.6-8.71c-2.88-7.72-8.36-5-13.47-2.3-11.33-5-22.88-.6-34.32-.79-4.14-.07-11.75-.26-11.89-1.23-1.86-13.25-11.64-9.06-19.31-9.5-7.63-13.55-6.64-26.79,1.76-39.58,2.92-4.43,5.16-9.66,2.16-13.87-3.74-5.25-8.07-.39-10.79,2.27-7.37,7.23-17.79,8.73-25.76,14.66-19.47,2.59-39.36,3-57.8,11h0l-5.31-.74c-13.35-5.2-28.82-2.23-41.32-10.7-2.51-1.42-3.58-.78-3.07,2.13-3.81,2.5-8.36,4.4-11.64.53s1.23-6.42,3.62-8.93c11-11.6,5-22.72-1.89-32.85C1254.93,210.09,1246.88,211.56,1244.36,205.5Z" transform="translate(476.21 -37.97)"/><path class="cls-6" d="M-356.1,1139.72c5.42-4.1,15.89,2.17,18-8.75,4.17-5.82,3.9-12.59,4.11-19.25,2.23-1.3,4-2.87,3.45-5.81l7-.72,9.34,2.62c4.24,7.52,11.59,10,19.12,9.06,19.1-2.29,38.17-1.1,57.26-1.39,18.26-.28,20.29-5.09,11.26-23.1,4.69-9.88-4.06-11.6-9-16.63-5.59-5.7-15.11-5.45-18.53-13.56.3-3.66.6-7.33.91-11,7.23-.85,14.5,3,21.72-.16,5.13,2.16,9.34-.48,13.65-2.6l.93.2c9.39,17.26,5.54,45.09,36.87,44.91,6.51,0,9,6.92,12.07,12.72,7.67,14.53,19,28,33.75,33.54,11.61,4.37,19.9-10.46,29.44-17,13.45-9.16,19.2,1.94,26.14,9,8,8.21,1.13,13.08-5.14,17.76-6.52,4.86-13.07,9.69-19.36,14.84-4.09,3.35-11.34,6.19-7.88,12.79,2.53,4.81,8.71,2,13.67,1.81,8.65-.42,17.77-6.69,26.09,1.08-12.54,9-28.27,9.32-42,10.94a297.65,297.65,0,0,1-72.74-.41c-9.77-14.16-12.65-14.22-23-.5-13.85-2.06-27.52-.45-41.16,2-11.38-13.67-41.49-21.66-56-14.88-7.38-11-22.57,1.07-29.87-10.14,5.14-5.31,6.3-11.41-2.91-10.58C-352.89,1157.84-353.62,1148.53-356.1,1139.72Zm173.52,44.63.09,1.18.85-.45Z" transform="translate(476.21 -37.97)"/><path class="cls-6" d="M1244.36,205.5c2.52,6.06,10.57,4.59,13.28,8.56,6.93,10.13,12.89,21.25,1.89,32.85-2.39,2.51-6.85,5.13-3.62,8.93s7.83,2,11.64-.53c1-.72,2-1.43,3.07-2.13,12.5,8.47,28,5.5,41.32,10.7l5.31.74h0c11.9,11.15,3.35,37.27-14.87,41.81-16.21,4-33,6.74-50,4.52-19.44-2.53-41.48-21.75-46.62-40.6-6.27-23-14.52-26.94-35.77-16.07-8.8,4.49-17.74,7.06-22.37-3.08-5.35-11.68-15.31-14.3-25.27-16.42-39.21-8.35-78.64-10.84-118.11-1.23-4.77-6.09-8.85-2-13,.87h.21c-3.46-1.37-7.39-4.55-10.31-3.8-15.44,3.94-29.27-4.25-44-4.89-8.53-.37-15.76-2.88-9.15-13.72,3.43-5.61,3.18-8.49-4.22-6.44-5.59,1.54-7.86-2.26-10.58-5.63l4.63-4.64c.7-1.53,1.4-3.07,2.11-4.6l5,.57c18.14,8.21,37.4,10.94,57.07,11.66,25.11,10.67,48.76,8.36,70.85-7.95l-.38,1.22.18-1.26c8.46,12.91,16,5.37,22-1.89,7-8.49,13.51-11,21-1.72,6,7.47,13.43,6.16,20.3,3.41,7.54-3,14.46-2.63,21.71-.16l0,.14-3.68,5.08c3.28,2.38,6.4,1.06,9.5-.46.27,1.24.55,2.47.82,3.71l-.75,2.88,2.79-1.28c10.9,0,18.21,11.2,29.66,9.55-2.66,16.2,6.82,17.69,20,16.64l-7.34-12a11.79,11.79,0,0,1,10.27-3.62c7.19,10.26,18.1,3,27.13,5.2,11.3,2.77,19.13-3.57,16.58-17.15A2,2,0,0,1,1244.36,205.5Z" transform="translate(476.21 -37.97)"/><path class="cls-7" d="M-1.82,606.75c-15.19,1-20.87,26.69-40.77,15.7-1.45-.8-4.21-1.28-5.22-.48-18.06,14.3-43.19,16.65-58.89,34.75-4.41,5.09-10.73,11.62-6,17.95,5.92,7.94,11.85-.28,17.51-3.29,8.21-4.37,17-7.46,24.33-13.64,3.78-3.21,9.5-5.51,13.83-2.47,5.63,4,.78,9-1,13.31-4.27,10.61-11.75,19.13-19.75,26.86-8.28,8-11.6,16.56-5.59,26.62,5.68,9.51,1.79,15.42-5.93,20.18-10.51,6.48-18.44,21.27-34,12.84-6.35-3.44-10.75-11.19-19.34-4.74-8.25,6.22,3.26,12.52-.22,18.71-13.3-1.3-12.75-18.16-24.2-21.54l-17.84-11.84c-5.62-10.27-12.69-18.57-24.7-22.06-7.61-2.21-12.17-7.78-10.7-16.55l23.46,2c14.75-.55,29.22,3.15,44.46-1.58,7.77-2.41-4,4.38-.26,6.52,6.67-5.09,13.42-10.15,20.05-15.35,4.42-3.46,3.76-7.23.24-11-14.68-15.53-32.36-23.7-54.05-22l-70.53-28.18c2-6.66,5.75-7.39,10.53-5.48,16.33,6.54,33.61,8.27,50.88,9,7.32.31,18.06,4.8,18.75-10,.23-4.81,6-5.37,10.66-5.16,25,1.09,49.64-4.72,74.52-5,18.35-.19,37.11-5.78,55,.28C-23.54,615.57-14.57,597.74-1.82,606.75Z" transform="translate(476.21 -37.97)"/><path class="cls-7" d="M-71.26,1180.17c-8.32-7.77-17.44-1.5-26.09-1.08-5,.24-11.14,3-13.67-1.81-3.46-6.6,3.79-9.44,7.88-12.79,6.29-5.15,12.84-10,19.36-14.84,6.27-4.68,13.19-9.55,5.14-17.76-6.94-7.09-12.69-18.19-26.14-9-9.54,6.49-17.83,21.32-29.44,17-14.78-5.56-26.08-19-33.75-33.54-3.07-5.8-5.56-12.76-12.07-12.72-31.33.18-27.48-27.65-36.88-44.91,8.74-4.65,8.11-12.65,7.4-20.68,5.79-3.66,8.64-14,18.59-8.25l2.3,2.62.66-3.14,1.31-.2c7.92-2.47,4.44-12,9.93-16,5.4-6.09,13,1.56,21.55-4.75-13.84-2.87-15.69-27.29-35.23-13.18-4.88-6.09-10.51-12.17-.3-18.51l.22,0c11.64,8.63,22.39,4.93,32.89-2.38,3-1.72,5.08-.75,6.29,2.39l23.43,32.23c-27.13,9.47-32.1,20.16-21.41,48,3.41,8.89,11.86,18.58,19.33,17.36,16.81-2.74,25.47,7.76,36,15.86,16.93,13.09,34.49,24.76,56,28.71,18.61,3.42,21.05,7.83,7.89,21.54-10.7,11.14-17.08,22.58-15.91,38-7.17,6.47-22.15-3.45-25.08,11.94Z" transform="translate(476.21 -37.97)"/><path class="cls-7" d="M-169.37,808.06c-13.29,28.48-10.95,37.77,14.3,59.56a100.13,100.13,0,0,1,14,14.91c4.73,6.19,10.52,6.75,16.54,3.76s9.4-8.7,6.91-15.51c-2.18-5.95-6.63-12.71,1.09-16.21s10.13,5.43,13.67,9.92q20.9,26.5,41,53.65c3.11,4.19,9.7,8.13,6,14.34-3.34,5.66-10.94,7.29-16.5,6.94-8.37-.54-16.54-4.22-24.79-6.56-11.6-5.76-22-2.58-31.89,4.3-9-10.56-18.76-20.49-24.63-33.33l-12.61-16.67c-1.09-4.74-2.43-9-8.12-3.74a4.44,4.44,0,0,0-2.94,2l-1.71-3.59c2.55-16-2.87-20.15-21.73-16.51l-38-17.59-6.1-.85-.64-.58a6.92,6.92,0,0,0-7-3.13l-.53-.49a7.13,7.13,0,0,0-7.59-3l-.37-.18c-2.46-8.61-9.53-13.77-16.83-15.7-13.4-3.54-5.83-8.26-2-13.32l0,.18,5.7,1.42a21.69,21.69,0,0,1,2.22-1.45c13.22-25.94-11.07-14-18.86-18.67-.64-1-1.32-2.06-2-3,3.78-3.58,9.86-5.35,9.62-12.12,1-.77,2-1.53,3-2.29,4.7,5.7,9,2.86,13.28-.62a1,1,0,0,1,1.74.05c4.75,12.28,11.44,20.4,25.81,12l4.7,3.71c2.82,4.95,6.54,6.25,11.43,2.83,4,1.26,9.37-2.21,12.06,3.53l5.79.5v-.78l2.4,1.86c-.18-1.08-.36-2.16-.53-3.24l11.23-6.56a13.44,13.44,0,0,1,.6,2.8c3.24,5,7,5.5,11.32,1.33l-.39-.27Z" transform="translate(476.21 -37.97)"/><path class="cls-8" d="M1566.21,510.06c-2.84-2.1-7.61-2.52-7.27-7.48.89-12.89-6.77-14.75-16.71-12.56-13.47,3-22.3-2.27-30.14-13.12-16.11-22.3-33.8-43.48-49.7-65.93-8.62-12.17-17.73-17.55-33.05-14-14.56,3.34-29.32.46-43.33-5,19.68-6.56,39.4-13,56.94-24.57l24.75-4.74c17.14,18,29.75-1.08,44.16-5.4l4.11.13c2.53,3.45,5.29,6.25,10,3.54l5.1,3.09a4.75,4.75,0,0,0,6.16,1l-.33,1.42.25-1.44q1.51,9.12,3,18.23c-2.44.4-4.89,1.24-7.29,1.12-35-1.64-35-1.67-21.18,29.78,12.2,15.11,34.34,11.83,47.3,25.55l4.81,5.28c5.41,5.56,7.79,12,5.39,19.66-9.8,6.19-16,11.51-2.91,22.19C1572.26,491.68,1577.2,502.38,1566.21,510.06Z" transform="translate(476.21 -37.97)"/><path class="cls-9" d="M-46,1168.26c-1.17-15.39,5.21-26.83,15.91-38,13.16-13.71,10.72-18.12-7.89-21.54-21.51-4-39.07-15.62-56-28.71-10.49-8.1-19.15-18.6-36-15.86-7.47,1.22-15.92-8.47-19.33-17.36-10.69-27.82-5.72-38.51,21.41-48,6.44-.81,11.59-4.12,16.75-7.86,4.2-3.05,8.17-9.73,14.39-5.34,5.49,3.87,2.82,10.45,1.92,15.79-1.29,7.65-1.45,15.17,2.55,21.87,12.12,20.26,22.71,41.5,38.08,59.72,4,4.78,9,6.49,14.9,6.37,3.74-.07,7.47-.45,11.2-.79,15.18-1.4,30.06.68,36.74,15.82,6.82,15.46-.23,29.55-12,40.17-7.86,7.06-14,13-5,23.05-6.2,6.11-14,7.44-22.23,7.35l-12.54-2.1Z" transform="translate(476.21 -37.97)"/><path class="cls-4" d="M477.33,347.8c6.48,7.63,5.79,13.86-2.12,20.69-13.57,11.7-26.17,22.8-45.86,25.09-19.91,2.31-24.52,17.68-13.53,35.48l-6.4,1.76c-4.54-4.54-9.48-8.38-16.17-9.11-14.48-6.26-28.2-15-44.95-13.87a19.45,19.45,0,0,0-10.1-7.63c-4.48-1.43-12.87,1.35-11.36-8,1-6.48,5.68-8.48,12.24-8.5,5.4,0,10.76-2.22,16.2-3,7.3-1,9.63-4.64,7.16-11.5l3.8-.67c5.87,7.73,10.16,5.5,13.59-2.16a2.25,2.25,0,0,1,2-.35c9.6,10.11,39.41,2.78,48.58-12,12.58-5.67,25.37-10.52,39.55-9.69C471.85,346.75,474.07,348.39,477.33,347.8Z" transform="translate(476.21 -37.97)"/><path class="cls-10" d="M856.13,261.1c-11.35,11.25-24.75,16.42-40.61,12.55-22-5.38-42.44,4.42-63.69,6.18-7.81-11.6-16.06,3.52-24-.38l-6,4.52c-14.26-2.87-28.49-7.12-42.86-.51l-45.9,1.84-9.72-6.57c14-5.4,28.61-9.65,38.56-22.07l4.78-1.55c3.68,4.55,7.45,4.15,11.27.18,1.92-2.08,4.07-3.42,7-2.26a4.2,4.2,0,0,0,5.91.62l.26,0c3,7.72,5.61,4.58,8.17-.28,7-6.95,16.34-7.14,25.25-8.54,11,14.36,24.46,14.33,38.7,5.79,8.14-4.89,14.66-10.25,22.16,1.85,3.92,6.32,7.8-.32,10.41-4.22l8-6.29H808c1.36,4.39,2.53,6.47,8.54,8.57C829.59,255.13,846.21,246.4,856.13,261.1Z" transform="translate(476.21 -37.97)"/><path class="cls-4" d="M623.36,278.73l9.72,6.57c-2.83,18.14-17.77,25.55-31.62,31.22-15.92,6.51-33.39,9.83-50.49,12.62-13,2.13-25.72,4.43-37.67,10.07-6.27,3-12.49,6.43-18.81.15L488,330.78a3.77,3.77,0,0,1,2.48-2.62c9.63-8.87,23.6-12.76,39.08-13.14,10.32-.25,20.51-1.41,25.56-14.14,3.41-8.59,8.28-18.42,21.29-17.2,3.94.37,4.13-3.69,3.54-7l11.87-2c1.76,9.18,6.8,8.18,12.82,4.12C610.82,274.66,617.08,276,623.36,278.73Z" transform="translate(476.21 -37.97)"/><path class="cls-7" d="M1431.65,879.82l-6.61,3.93c-2-11.26-9-4.66-13.81-3.34-6.87,1.89-11,6-5.89,13.61a2.65,2.65,0,0,1-1.38,3.14c-15-3.61-29.35-22.24-45.34-1.89h0c-12-17.71-31.45-11.72-43.8-6.93-21.68,8.4-39,8.22-56.33-6.58v0c19.26-11.76,46.26-3.36,62.18-23.85,7-5.71,4.77-12.18,1.58-18.74L1344,840c.63,4.15,2.57,8.62,1.63,12.37-2.94,11.79,7.34,12.45,13.18,16,8.23,5,12-1.47,14.86-8l8.72,4.28c7.2,5.19,12.84,5,15.74-4.59l3.39-1.47c2.79,3.09,7.52,9.5,9.63,6.1,7.33-11.73,15.36-3.32,25.89-4.59C1432.65,867.78,1425.22,872.8,1431.65,879.82Z" transform="translate(476.21 -37.97)"/><path class="cls-6" d="M1511.86,357.21c-14.41,4.32-27,23.41-44.16,5.4-4.34-9.88-7.48-24.37-21.74-18.48-8.88,3.66-27.44.7-24.09,20.4-2.86.89-6.07,3.1-8.53,2.46-14.24-3.7-23.7.43-28.48,14.85-.85,2.57-4.21,4.3-6.42,6.41l-12,9.05c-5.35-7.88-11.44-14.87-21.21-17.31-5.7-1.42-11.17-3.17-10.63-10.62s7-7.51,12-9.79c10.63-4.82,22.11-3,33-5,12.06-2.27,25.82-.72,34.54-12.5l11.95-9.13c9.35,1.87,11.58-5.57,15-11.47l6-4.51h0c16.69,4,23.33,20.4,36.08,29.36,4.74,3.33,8,7.69,14.12,3.74Z" transform="translate(476.21 -37.97)"/><path class="cls-10" d="M1258.52,881.75c17.37,14.8,34.65,15,56.33,6.58,12.35-4.79,31.8-10.78,43.8,6.93-21.17-8.33-34.43,8.19-50.55,16-16.42,7.9-32.26,9.36-51.06,3.83-17.48-5.14-35.36,5.52-52,13-19.66,8.76-39.14,18-60.75,21.1a10.54,10.54,0,0,1-1.6-2.43c8.86-8.37,20.1-11.86,31.41-15.08,20.52-5.83,40.23-12.41,45.56-37.05a5.17,5.17,0,0,1,7.49-3.33C1240.61,897.73,1249.33,889.14,1258.52,881.75Z" transform="translate(476.21 -37.97)"/><path class="cls-11" d="M409.42,430.82l6.4-1.76c12.37,4.84,23.59,11.26,31.3,22.56-1.19,12.09-13.89,22.66-4.77,36.12L424,499.84c-3.53-3.19-6.7-2.27-9.68.87-4.81,2-14.79-4.49-13.27,8l-5.67,3.5c-4.67-4.88-5.77.21-7.76,2.78-13.48,1.19-26.53,7.73-40.46,3.22.48-3.86.66-7.84,4.44-10.27,8.11-.12,14.92-9.62,24.69-1.15,5.43,4.71,13.65.07,17.4-6.24,4.63-7.78-5.07-8.3-8-12.14s-7.76-6-11.77-8.89c3.61-3.67,8-7.67,13-4.74,17.22,10,14.4-5,14-12.24C400.36,450.66,404,440.69,409.42,430.82Z" transform="translate(476.21 -37.97)"/><path class="cls-6" d="M50.94,1188.63c15.69,3.4,26.93,18.9,39.86,21.58,24,5,36.87,37,66.05,25.32,4.67,3,9.58,1.9,14.38.64,21.26-5.59,42.24-12.66,63.81-16.5,15.71-2.79,30.5-9.74,47.4-8.42,11.47.9,5.91-7,2.7-12.16,11.57,7.19,23,13.51,37.53,7.1a11.63,11.63,0,0,1,13.51,3.75c-14.34,9.77-31.57,8-47.41,11-24.23,4.57-50.73,1.6-73.13,10.1-24,9.12-48.08,10.63-72.31,15-7.21,1.29-10.82-1.73-16.35-3.57C96.05,1232.13,74.41,1209.17,50.94,1188.63Z" transform="translate(476.21 -37.97)"/><path class="cls-5" d="M362.44,369.22c2.47,6.86.14,10.52-7.16,11.5-5.44.74-10.8,2.94-16.2,3-6.56,0-11.2,2-12.24,8.5-1.51,9.38,6.88,6.6,11.36,8a19.45,19.45,0,0,1,10.1,7.63C299.93,403,249.88,405,207.4,376.07l1-6.81,26.8,5.6c27.64,5.78,55.81,1.59,83.55,4.39C334.89,380.87,346.42,365.84,362.44,369.22Z" transform="translate(476.21 -37.97)"/><path class="cls-7" d="M579.91,276.72c.59,3.27.4,7.33-3.54,7-13-1.22-17.88,8.61-21.29,17.2C550,313.61,539.84,314.77,529.52,315c-15.48.38-29.45,4.27-39.08,13.14-3.2-2.1-8.06-2.06-9.1-7,5.57-4.59,10.81-8.84-1.89-10.48-4-.52-9.64-1.88-9.36-7.16.24-4.52,5.19-6.92,9.16-8.45a42,42,0,0,1,12.7-2.46c12.63-.7,22.94-5.36,30.08-16.13C541.36,268.09,560.61,277.81,579.91,276.72Z" transform="translate(476.21 -37.97)"/><path class="cls-9" d="M1732.76,567.14c-17.56,3.15-29.81.29-30.42-21.76-.37-13.13-10.59-19.87-22.83-23-3-12.9,10.86-6.76,13.48-11.82,3.71-7.17,19.23,3.45,16.2-11.65l3.4-1.44c11.19,2.45,12.53,17.09,23.91,19.3l4.78,5.91C1749.71,539.69,1757.85,556.6,1732.76,567.14Z" transform="translate(476.21 -37.97)"/><path class="cls-6" d="M-283.16,776.82c.24,6.77-5.84,8.54-9.62,12.12-4.57-2.19-7.38.61-10.14,3.58-5.15,5.38-2.17,7.9,3.29,9.94,6.66,2.5,13.2,5.35,19.79,8-3.79,5.06-11.36,9.78,2,13.32,7.3,1.93,14.37,7.09,16.83,15.7-32.59-12.47-65.9-23.15-97.46-38.27,2.75-2.51,4-5.42,2.54-9.11a192.2,192.2,0,0,1,41.48,6.49c3.33.86,8,2.36,8.21-3.16.09-2-3.59-4.09-5.54-6.15-5.67-14.39-29.26-23.83-40.71-16.3l-6.71-3.1,11.94-15.2h0c16.57,9.95,38.18,7.35,53.28,21.47C-292,778.09-286.85,776.69-283.16,776.82Z" transform="translate(476.21 -37.97)"/><path class="cls-12" d="M-238.74,847.74l38,17.59C-223.26,877-223.26,877-207,888.74q-1.95,6.63-3.91,13.27c-10.67,3.29-8.6,10.51-5.55,18-6.81-.17-14.66-8.34-20,3.76-1.39,3.17-10.82,6.27-11-1.32-.73-25.47-18.27-11.17-28.81-13.31-15.3-11.48,8.15-14.2,5.18-22.9q1.55-2.34,3.08-4.69c4.39-.28,7.19,2,9,5.7-2,1.83-2.21,3.94-.54,6,.48.57,1.86.39,2.82.55-.78-2.08-1.55-4.17-2.32-6.25l9.45-.41c4,10.73,12,15.66,27.38,18l-20-23.49c-13.92-11,6.1-21.62.29-32.51A10,10,0,0,1-238.74,847.74Z" transform="translate(476.21 -37.97)"/><path class="cls-7" d="M224.16,574.13c-19,1.36-37.07,9.15-56.53,8.56-6.51-.2-14.12-.51-17.33,9-1.61,4.72-8.53,6.26-13.07,2.84-10.6-8-20-3.17-30.93-.38-14.21,3.64-29.67-6.41-44.2,1.32-10.56,5.62-21.08,8.3-32.42,2.63,16.18-6.8,32.83-12.66,48.38-20.65s28.32,2.14,41.37,5.33a54.21,54.21,0,0,0,47-9.83c10.63-8.21,18.76-10.48,30.88-8.28,8.37,1.51,17.26.23,25.91.21C221.3,568.17,222.16,571.21,224.16,574.13Z" transform="translate(476.21 -37.97)"/><path class="cls-11" d="M822.42,236.47c3.06-6.4-5-11.05-2.74-17.32,5.1,1.7-.32-15,9.78-5.39,5.3,5.05,8.32,1.69,10.32-4.37,6-18.28,27.56-26.25,44.49-15.94,4.8,2.93,6.25,1.27,8.68-1.84,2-2.51,4.44-6.43.56-7.51-21.34-5.94-5.39-15.09-2.39-23.13,11.61,2.19,10.24,11,10,19.35,2.6,12.08-9.8,26.88-24.17,28.43-6.46.7-15.14-2.52-17.53,6-2,7,4.46,12.2,9.09,17.14-10.78,5.19-23.36,4.1-34,10.21C829.12,245.14,825.47,240.49,822.42,236.47Z" transform="translate(476.21 -37.97)"/><path class="cls-12" d="M891.12,161c-3,8-19,17.19,2.39,23.13,3.88,1.08,1.4,5-.56,7.51-2.43,3.11-3.88,4.77-8.68,1.84-16.93-10.31-38.48-2.34-44.49,15.94-2,6.06-5,9.42-10.32,4.37-10.1-9.64-4.68,7.09-9.78,5.39-8.06-9.5,0-18.13,3.56-25,6.7-12.78,16.69-23.82,25.32-35.59C862.93,156.12,877.37,152.46,891.12,161Z" transform="translate(476.21 -37.97)"/><path class="cls-6" d="M1732.76,567.14c25.09-10.54,17-27.45,8.52-44.41,12.09,5.76,22.23,10.93,37,1.19,10.91-7.17,27.13-2,41,7.26-22.3,4.07-35.31,23-56.88,28.52-7.82,2-16.31,11.18-27.22,11.46Q1734,569.15,1732.76,567.14Z" transform="translate(476.21 -37.97)"/><path class="cls-10" d="M1765,726.54c19.76,1.65,38.11-6.59,57.55-8.24,17.41-1.47,18,12.65,21.11,20.72,3.51,9.05-9.05,14.19-15.1,20.57-.94,1-6,.27-6.61-1-12.07-23.09-38.66-16.24-56.3-27.61C1765.42,729.53,1765.21,728,1765,726.54Z" transform="translate(476.21 -37.97)"/><path class="cls-6" d="M1579.21,386.36c-4.35,10.68-11.13,14.56-21.73,7.77-3.88-6.63-11.35-7.56-17.29-10.9q-1.53-9.12-3-18.23c4.23-1,8.54-3,12.67-2.71,17.65,1.38,26.36-5.47,22.5-23.88,16.35-.09,18.56,12.42,23.37,22.36,2.72,5.62-.72,7.74-5.28,9.4C1582.91,372.89,1576.78,376.7,1579.21,386.36Z" transform="translate(476.21 -37.97)"/><path class="cls-5" d="M-226.6,1092.38c9,18,7,22.82-11.26,23.1-19.09.29-38.16-.9-57.26,1.39-7.53.91-14.88-1.54-19.12-9.06,7.49-5.51,19.79-1,24.1-6,6.61-7.66,25.44,5.6,22.55-14.23C-253.57,1086.17-240.16,1089.94-226.6,1092.38Z" transform="translate(476.21 -37.97)"/><path class="cls-12" d="M-336.09,1167.16c7.3,11.21,22.49-.83,29.85,10.15l5.34,10.75c-7.53,2.9-15.87-13.71-23.06,1-.7,1.42-2.62,1.26-4.36-.71-16.38-18.57-40.24-8.16-59.35-15.3-9.15-3.42-24.42,4.56-27.25-12.58,3.64-3,4.05-8.84,9.31-10.36,11.82,3.47,19.75,16,36.53,9.53C-362,1156.94-348.58,1169.07-336.09,1167.16Z" transform="translate(476.21 -37.97)"/><path class="cls-5" d="M1654.14,768c-35.5,10.49-70.33,24.08-108.08,24.38-5.32,0-10.65-2-16-3,2.94-2.89,7.08-1.81,10.36-3.05,19.22-7.28,42.52-1.79,58.63-18.67l5.75-7.4,5.88-3.57,5.71,0c3.8,4.47,7.82,7.23,12.9,1.64l21.43,1.25C1651.88,762.31,1653,765.14,1654.14,768Z" transform="translate(476.21 -37.97)"/><path class="cls-9" d="M1599.07,767.6c-16.11,16.88-39.41,11.39-58.63,18.67-3.28,1.24-7.42.16-10.36,3.05l-1.49.3c3.24-8.84-6.37-8.11-9.24-12.4l24.47-18c1.61,2.43,3.66,4,6.8,3.42,2.25.45,5,2,6.63,1.13,3-1.5.52-3.88-.48-5.81l1.31-1,1.2-1.08,4-2.5,29.45,3.76A14.22,14.22,0,0,0,1599.07,767.6Z" transform="translate(476.21 -37.97)"/><path class="cls-10" d="M1137.66,194.57c-7.25-2.47-14.17-2.86-21.71.16-6.87,2.75-14.29,4.06-20.3-3.41-7.49-9.31-14-6.77-21,1.72-6,7.26-13.55,14.8-22,1.89,4.85-10.09,9.71-19,24-17.79,4.69.4,10-6.06,15-9.38l-.14,0,5,4.34c6.18,10.28,12.09,15.59,16.77-.94l2.38-3.21C1123.39,176.47,1147,171.93,1137.66,194.57Z" transform="translate(476.21 -37.97)"/><path class="cls-13" d="M522,276.5c-7.14,10.77-17.45,15.43-30.08,16.13a42,42,0,0,0-12.7,2.46c-4,1.53-8.92,3.93-9.16,8.45-.28,5.28,5.36,6.64,9.36,7.16,12.7,1.64,7.46,5.89,1.89,10.48a86.31,86.31,0,0,1-35.73-17.83c-2.69-2.19-7-2.13-6.09-7.42.89-5.1,6.29-3.87,7.89-3.92C473.24,291.18,496.7,279.28,522,276.5Z" transform="translate(476.21 -37.97)"/><path class="cls-12" d="M1137.66,194.57c9.35-22.64-14.27-18.1-22-26.67,26.5-12.61,26.51-12.61,30,15.39.14,1.1-.29,2.42.17,3.32,2.44,4.83,34.8,14.42,41.07,12.3h-.29c2.58,6.69,10.86,6.67,14.4,12.24l-2.1,4a11.77,11.77,0,0,0-10.27,3.63c-2.14-7.22-7-6.93-12.65-4.62-11.45,1.65-18.76-9.51-29.66-9.54a5.82,5.82,0,0,0-2-1.61c-.27-1.24-.55-2.47-.83-3.7.59-4.71-3.84-3.12-5.81-4.63Z" transform="translate(476.21 -37.97)"/><path class="cls-12" d="M337.57,522.52c1.09,14-9.07,9.91-16.48,10.2-18.65-12-34-9-50.7,9.82-4.3-11.25,5.56-37.54,15.84-40.08,2.83-.7,6.65,3.67,10.29,4.9C310.34,512.06,325.43,513.27,337.57,522.52Z" transform="translate(476.21 -37.97)"/><path class="cls-10" d="M1629.22,518.3l7.16-3.81c26,3,49.57-5.53,72.81-15.53,3,15.1-12.49,4.48-16.2,11.65-2.62,5.06-16.47-1.08-13.48,11.82-4.12,8.57-11.31-1.83-16.11,2.61-3.41-3.09-7-4.2-10.88-.83l-9,6.83c-1.89,3.54-10.44,2.58-6.71,9.92,6.42,11.76-4.15,9.85-9.66,12-9.3-.78-5.36-11.6-11.31-14.91l.84-6.46C1627.85,533.7,1629,526.4,1629.22,518.3Z" transform="translate(476.21 -37.97)"/><path class="cls-11" d="M-186.37,655.63c21.69-1.65,39.37,6.52,54.05,22,3.52,3.73,4.18,7.5-.24,11-6.63,5.2-13.38,10.26-20.05,15.35-3.7-2.14,8-8.93.26-6.52-15.24,4.73-29.71,1-44.46,1.58,2.72-9.58,8.76-12.65,18.36-10a73.36,73.36,0,0,0,16.27,2.81c7.13.33,15.74-2.23,17.78-7.94,2.66-7.45-8.1-7.22-11.77-11.42C-164.34,663.14-178.06,664.32-186.37,655.63Z" transform="translate(476.21 -37.97)"/><path class="cls-4" d="M350.88,1210.38c9.11-4.77,17.87-9.53,24.52-18.19,5.77-7.5,13.55-9.36,22.39-2.13,7.94,6.49,19.65,7.58,25.89,17a8.42,8.42,0,0,0,1.7,2.73C400.62,1219.08,375.7,1209.31,350.88,1210.38Z" transform="translate(476.21 -37.97)"/><path class="cls-13" d="M409.42,430.82c-5.44,9.87-9.06,19.84-8.46,31.73.37,7.21,3.19,22.24-14,12.24-5-2.93-9.41,1.07-13,4.74L365.35,476c2.33-3.42,4-8.88,7.13-9.89,13.35-4.34,7.58-10.39,2.44-16.81l-.05,0c3.93-2.2,4.08-5.55,2.83-9.33,8.16-3.59,9.49-13,15.55-18.34C399.94,422.44,404.88,426.28,409.42,430.82Z" transform="translate(476.21 -37.97)"/><path class="cls-5" d="M-336.09,1167.16c-12.49,1.91-26-10.22-33-7.52-16.78,6.42-24.71-6.06-36.53-9.53-1.16-4.22-1.18-8.27,1.7-11.91l47.81,1.52c2.48,8.81,3.21,18.12,17.1,16.86C-329.79,1155.75-330.95,1161.85-336.09,1167.16Z" transform="translate(476.21 -37.97)"/><path class="cls-11" d="M887.22,97c12,13.26,1.48,22.82-6.44,31.33s-17,2.84-25.14-1.87C851.34,104.12,862.19,94,887.22,97Z" transform="translate(476.21 -37.97)"/><path class="cls-12" d="M-291.48,901.72c-16.85-10-38.89-8.48-53.27-24a18.42,18.42,0,0,1,.2-2.79c3.52-4.88,11.34-1.37,14.51-7.53-1.37-6.84-10.07-6.52-13.08-13.7,16.93.58,30.43,8.67,44.44,15.19l-.45,7c-8.94,3.46-17.78-17.91-26.79-.11l-5.1,0,.42,2.41,4.69-2.57c9.2,12.66,20.27,16.53,34.13,7.26l-.36-.05C-289.31,889-280.37,895-291.48,901.72Z" transform="translate(476.21 -37.97)"/><path class="cls-11" d="M429,1207.06,487.66,1193c4.93,6.86,10.33.21,15.49.51l6.68,7.41c-5.23,6.51-10,11.17-20.41,10.19-14.86-1.39-30.17.41-45.1,2.29C437.15,1214.28,432.3,1213.63,429,1207.06Z" transform="translate(476.21 -37.97)"/><path class="cls-5" d="M-347.22,754.72l-11.94,15.2-57.64-29.6-6.36-2.48c-3.58-1.14-8.44-.41-8.92-6.09,2.41-3.94,3.77-8,2.2-12.67l12.9,2.84c-3.14,5.22-1.25,8,4.32,9.22C-389.76,736-370.38,750.59-347.22,754.72Z" transform="translate(476.21 -37.97)"/><path class="cls-11" d="M-267.59,1087.63c2.89,19.83-15.94,6.57-22.55,14.23-4.31,5-16.61.44-24.1,6l-9.34-2.62c-1.4-1.54-2.81-4.32-4.23-4.32-2.38,0-3.43,2.44-2.73,5,.54,2.94-1.22,4.51-3.45,5.82a7.16,7.16,0,0,1-2.92-2.25c2.46-14.57,6.22-24.66,25.9-20.28C-297.33,1092.25-282.12,1088.4-267.59,1087.63Z" transform="translate(476.21 -37.97)"/><path class="cls-7" d="M1042.5,1002.31c7.06-16.89,27.1-10.43,37.69-21q1.63,4.15,3.3,8.3c-.59,2.12.47,3.09,2.41,3.17a13.86,13.86,0,0,0,.62-2.69c6.59,5.55,13.07,11.25,19.82,16.6,4.42,3.5,4.34,7.83,1.45,11.38-2.6,3.2-7.65,3.18-9.73-.4-5.81-10-21.21-6.49-25.2-18.53C1063.23,1005,1052.41,999.22,1042.5,1002.31Z" transform="translate(476.21 -37.97)"/><path class="cls-10" d="M1373.66,860.32c-2.91,6.54-6.63,13-14.86,8-5.84-3.54-16.12-4.2-13.18-16,.94-3.75-1-8.22-1.63-12.36l4.37,1.1,8.31-1.46.43-.92,1,.07c2.91,1.45,5.42.55,7.32-1.69,1.7-2,.3-2.7-1.68-2.79-2.25-15,8.23-14.45,18-14.68l5.87-3.83,1,.33.59-.88,4.09,2.87c-.37,1-.73,2-1.09,3-.16,15.5-18.79,5.24-22.34,16C1367.46,845.47,1366,853.64,1373.66,860.32Z" transform="translate(476.21 -37.97)"/><path class="cls-6" d="M-176.73,1003c-5.49,4-2,13.51-9.93,16,1.47-12.81-7.24-17.93-16.65-23.24-7-4-13.76-10.14-10.5-19,3.17-8.6,12.56-11.29,20.5-14.67.19-.09,1.7,2.92,2.6,4.49-10.21,6.34-4.58,12.42.3,18.51C-181,987.37-182.31,997.81-176.73,1003Z" transform="translate(476.21 -37.97)"/><path class="cls-12" d="M365.35,476l8.56,3.49c4,2.9,8.91,5.12,11.77,8.89s12.6,4.36,8,12.14c-3.75,6.31-12,10.95-17.4,6.24-9.77-8.47-16.58,1-24.69,1.15-2.34-10.6-2.32-20.56,7.62-27.79Q362.26,478.09,365.35,476Z" transform="translate(476.21 -37.97)"/><path class="cls-13" d="M623.36,278.73c-6.28-2.7-12.54-4.07-18.76.15l-2-8.47c17.77-13.31,37-20.45,59.36-13.75C652,269.08,637.33,273.33,623.36,278.73Z" transform="translate(476.21 -37.97)"/><path class="cls-10" d="M1052.84,195c-22.09,16.31-45.74,18.62-70.85,7.95l6.32-4.64c14.56,5.86,27.47-.13,40.75-5.17C1036.92,190.13,1045.78,183.82,1052.84,195Z" transform="translate(476.21 -37.97)"/><path class="cls-13" d="M270.39,542.54c16.66-18.85,32.05-21.83,50.7-9.82-8.52,4.5-17.94,6.87-23.54,16.56-4.38,7.59-13.3,7.68-21.56,5.63l-7.11-9.71A6,6,0,0,1,270.39,542.54Z" transform="translate(476.21 -37.97)"/><path class="cls-12" d="M-13.67,1252.05c17.12-1.46,37.49-7.59,37.88,12.87.36,19.29-14.39,23.47-27.32,6.27C-7,1266.09-6.09,1257.57-13.67,1252.05Z" transform="translate(476.21 -37.97)"/><path class="cls-13" d="M-347.22,754.72c-23.16-4.13-42.54-18.74-65.44-23.58-5.57-1.18-7.46-4-4.32-9.22,26.35,2.89,50,14.11,73.91,24.28l-4.19,8.52Z" transform="translate(476.21 -37.97)"/><path class="cls-12" d="M887.22,97c-25-3-35.88,7.11-31.58,29.46-13.47-.84-14.38-10.52-15.28-20.87-1-11.45,8-11.51,14.84-15.24C868.28,83.19,881,73,887.22,97Z" transform="translate(476.21 -37.97)"/><path class="cls-10" d="M1431.65,879.82c-6.43-7,1-12,5.38-19.77-10.53,1.27-18.56-7.14-25.89,4.59-2.11,3.4-6.84-3-9.63-6.1,1.16-.27,2.76-.15,3.39-.88,12.68-14.47,28.18-7,42.88-5.62,2,2.28,4.27,3.74,7.22,1.76,2.68-1.79,1.24-3.77,0-5.67l6.2,1.58q-.45,3-.89,5.91C1448.75,861.3,1446.1,877.54,1431.65,879.82Z" transform="translate(476.21 -37.97)"/><path class="cls-13" d="M1645.09,476.88c-20.09,9.16-22.27-8.29-28.75-19.35,3-4.09,3.63-9.95,9.22-12,2.26,3.31,5.44,5.86,9.38,5,15.34-3.53,15.23,5.18,12.91,15.79C1647.07,469.82,1646,473.34,1645.09,476.88Z" transform="translate(476.21 -37.97)"/><path class="cls-11" d="M1645.09,476.88c.93-3.54,2-7.06,2.76-10.63,2.32-10.61,2.43-19.32-12.91-15.79-3.94.9-7.12-1.65-9.38-5,1-6.3,3.71-8.87,11-9.14,17.05-.65,22,12.69,26.82,23.59,5.81,13-9.83,14.2-15.67,20.9Z" transform="translate(476.21 -37.97)"/><path class="cls-11" d="M988.31,198.28,982,202.92c-19.67-.72-38.93-3.45-57.07-11.66,19.63-10.71,39.46-.53,59.2-.58C983.84,194.14,985.85,196.33,988.31,198.28Z" transform="translate(476.21 -37.97)"/><path class="cls-13" d="M-403.91,1138.2c-2.88,3.64-2.86,7.69-1.7,11.91-5.26,1.52-5.67,7.39-9.31,10.36-10,3.67-12.64-15-23.78-7.76-.81-3.49-2-6.94-2.33-10.48-.45-4.57,3.23-4.36,6.24-4.35C-424.5,1137.92-414.21,1138.09-403.91,1138.2Z" transform="translate(476.21 -37.97)"/><path class="cls-11" d="M365.35,476q-3.09,2.06-6.17,4.12c-2.94-3.08-5.63-6.47-8.88-9.17-5.32-4.4-8-10.21-5.32-16.19,3.4-7.5,10.86-4.14,15.94-2.36,6,2.08,10.32,2.59,14-3.1,5.14,6.42,10.91,12.47-2.44,16.81C369.36,467.16,367.68,472.62,365.35,476Z" transform="translate(476.21 -37.97)"/><path class="cls-12" d="M-282.12,1044.66c-22.45-4.7-43.45-13.16-65.35-25.1,10.83-4.66,19.1-.67,27.33,2.2,7.2,2.52,13,8.82,22.25,2.76,7-4.58,2.13,8.51,8.24,7.86Q-285.9,1038.53-282.12,1044.66Z" transform="translate(476.21 -37.97)"/><path class="cls-5" d="M-347.26,754.72l4.19-8.52,6.72,3c2.42,4.69,5.68,6.78,10.69,3.47,14.23,2.47,27.27,8.33,40.32,14.16l5.17,7.65c-1,.76-2,1.52-3,2.29-3.69-.13-8.8,1.27-10.82-.63C-309.08,762.07-330.69,764.67-347.26,754.72Z" transform="translate(476.21 -37.97)"/><path class="cls-7" d="M1.79,1169.67c17.75-.91,37-5.84,46.11,16.86-15.8-2-31.92-1.2-47.41-5.69Q1.14,1175.26,1.79,1169.67Z" transform="translate(476.21 -37.97)"/><path class="cls-5" d="M1198.9,215.18l2.1-4c13-7,27.71-5.4,41.61-7.91,2.55,13.58-5.28,19.92-16.58,17.15C1217,218.16,1206.09,225.44,1198.9,215.18Z" transform="translate(476.21 -37.97)"/><path class="cls-5" d="M-300.9,1188.06l-5.34-10.75c14.57-6.79,44.68,1.2,56.06,14.87Z" transform="translate(476.21 -37.97)"/><path class="cls-12" d="M-234.64,789.71q-2.36-1.85-4.69-3.71c-.12-1.69-.23-3.38-.35-5.07,7.34,1,16-9.76,22.54,3.65,1.63,3.34,12,2.61,13.09-6.16.66-5.41,2.43-8.21,8.17-7.25.21,5.78,8.59,9.77,3.63,16.68l-11.22,6.56a2.77,2.77,0,0,0-1.88,1.38s0,.78,0,.79l-5.78-.51c-2.69-5.74-8.06-2.27-12.06-3.53C-226.43,789.22-230.3,788.52-234.64,789.71Z" transform="translate(476.21 -37.97)"/><path class="cls-14" d="M900.36,1114.26c8-5.26,10.2,6.28,15.59,8.82s4.72,9.18-1.08,13.54c-9.12,6.87-15.49-2-20.36-5.64C888.82,1126.67,895.45,1120.38,900.36,1114.26Z" transform="translate(476.21 -37.97)"/><path class="cls-15" d="M-220.27,697.06c-1.47,8.77,3.09,14.34,10.7,16.55,12,3.49,19.08,11.79,24.7,22.06-19.52-3.61-30.49-21.33-47.74-29-5.89-2.62.55-9.56,2-12.27C-227.94,689.61-223.52,694.61-220.27,697.06Z" transform="translate(476.21 -37.97)"/><path class="cls-6" d="M1736.5,516.82c-11.38-2.21-12.72-16.85-23.91-19.3a70.8,70.8,0,0,0,6.77-3c9-5.11,20.65-5.64,26.16.75C1752.7,503.62,1741,510,1736.5,516.82Z" transform="translate(476.21 -37.97)"/><path class="cls-10" d="M513.81,1203.23c-1.9-11.33,5.79-10,12.34-8.78,13.6,2.5,27.08,5.6,40.62,8.45-11.78,3.34-22.65,14-36,4.48l-2.56-2c.31.88.62,1.76.92,2.63C521.74,1213.66,517.58,1209,513.81,1203.23Z" transform="translate(476.21 -37.97)"/><path class="cls-10" d="M-355.89,792.14c1.49,3.69.21,6.6-2.54,9.11-11.27-2.62-22.55-5.15-33.78-7.93-3.22-.79-5.54-3-4.9-6.72.81-4.73,5.18-3.1,7.27-2.67C-378.44,786.28-367.19,789.33-355.89,792.14Z" transform="translate(476.21 -37.97)"/><path class="cls-10" d="M1358.62,895.27c16-20.35,30.35-1.72,45.34,1.89,1.61,5.92,4.71,11.38-6.86,9.24C1383.78,903.93,1373.63,891.1,1358.62,895.27Z" transform="translate(476.21 -37.97)"/><path class="cls-13" d="M-291.48,901.72c11.11-6.7,2.17-12.72-.66-18.94,7.74-3.1,13.91,3.23,21.08,3.49,3,8.7-20.48,11.42-5.18,22.9,2.49,5.93,2.1,10.84-5.24,12.43-7.6,1.64-3.85-5.78-6.29-8.27C-291,910-291.85,906.1-291.48,901.72Z" transform="translate(476.21 -37.97)"/><path class="cls-12" d="M-302.07,985.1c5.19-1.7,10.42-3.21,15.49-5.15,4-1.53,8-4.32,11,1.29,1.13,2.13,3.13,4.91,2.54,6.65-1.84,5.35-6.89,3.6-11,3.76a110.39,110.39,0,0,0-14.22,1c-3.12.52-4,10.22-8.93,3C-310.48,990.94-303.61,988.8-302.07,985.1Z" transform="translate(476.21 -37.97)"/><path class="cls-10" d="M1730.93,596.74c9.57,2,12.49-8.13,19.2-10.52,7-2.48,14.4-7.76,22.52-2.51-3.62,1.18-4.53,3.59-3.17,7-.57,12.92-5.89,13-14.32,5.41-10.79-9.73-15.55-2.27-19.56,7l.22-.41c2.89-5.46-.56-6.14-4.73-6.28Z" transform="translate(476.21 -37.97)"/><path class="cls-11" d="M-178.49,934.13l-4.34.71c-7.9-6.27-17.8-3.63-26.58-6,6.22-4.87-5.34-14.43,4.82-18.27a28.38,28.38,0,0,1,3.24-1.16l9.56,17.77C-185.68,926.3-178.38,923.08-178.49,934.13Z" transform="translate(476.21 -37.97)"/><path class="cls-11" d="M-445.33,725.68c-12.66-.25-24-2.83-30.88-17.29,12.5,3.47,24,2,33.76,8C-439.78,720.59-442.67,723.1-445.33,725.68Z" transform="translate(476.21 -37.97)"/><path class="cls-5" d="M1456.24,787.54l5.33.67c12.35,5.51,24.31,6.59,35.26-3.23.43,2.35.86,4.71,1.3,7.06-.88,8-6.79,6.78-12.31,7.09-12.57.7-25,.46-37.22-2.89a4,4,0,0,1-1.69-2.42Z" transform="translate(476.21 -37.97)"/><path class="cls-3" d="M1175.71,954.4c3.57,8,17.32,12,7.29,23.33-3.27,3.71-8,3.45-11.56.1C1161.17,968.29,1170.28,962.07,1175.71,954.4Z" transform="translate(476.21 -37.97)"/><path class="cls-5" d="M430.4,354.09c-9.17,14.73-39,22.06-48.58,12C398.54,364.18,414.42,358.92,430.4,354.09Z" transform="translate(476.21 -37.97)"/><path class="cls-12" d="M580.47,1194.11c1.52-7.51,10-10.21,14.1-12.16,8-3.87,1.51,10.9,9.09,12-2.26,11.44-10.15,10.06-18.31,8Z" transform="translate(476.21 -37.97)"/><path class="cls-6" d="M-209.52,1028c.71,8,1.34,16-7.4,20.68l-.92-.2c-1.92-9.85-7.53-13.45-17.21-10.17l-4-6.42,16.72-7.27Z" transform="translate(476.21 -37.97)"/><path class="cls-5" d="M-352.45,773c11.45-7.53,35,1.91,40.71,16.3Z" transform="translate(476.21 -37.97)"/><path class="cls-12" d="M268.88,545.2l7.11,9.71-9.73,4.37c-3-.21-5,.25-2.79,3.83-6.57,5.42-14.67.62-21.66,3.21-.84-1.43-1.67-2.87-2.51-4.31C248.69,555.58,262.28,556.55,268.88,545.2Z" transform="translate(476.21 -37.97)"/><path class="cls-15" d="M-271.06,886.27c-7.17-.26-13.34-6.59-21.08-3.49l.36.05-7.35-7,.45-7c11.32,1.6,24.33-.85,30.71,12.69Z" transform="translate(476.21 -37.97)"/><path class="cls-5" d="M-336.91,1109.48a7.16,7.16,0,0,0,2.92,2.25c-.21,6.65.06,13.42-4.11,19.24-7-5.57-16.37-8.38-21-17.64C-351.81,1108.93-342.7,1118.21-336.91,1109.48Z" transform="translate(476.21 -37.97)"/><path class="cls-11" d="M980.84,41.82c1.94,4.65,3.73,9.33-1.12,13.2-3.21,2.56-7.37,2.88-9.87-.38a13.53,13.53,0,0,1-.44-15.42C971.91,35.74,976.9,40.5,980.84,41.82Z" transform="translate(476.21 -37.97)"/><path class="cls-11" d="M1.79,1169.67q-.64,5.58-1.3,11.17c-11.62,4.63-21.79,1.51-31.16-5.85,8.25.09,16-1.24,22.23-7.35Z" transform="translate(476.21 -37.97)"/><path class="cls-12" d="M-299.5,958.93c-5.21-6.27.46-8.92,3.74-11.92,4.79-4.35,8.81-2.15,12.36,2.2s5.43,8.36,0,12.43C-289.85,966.45-294.78,962.49-299.5,958.93Z" transform="translate(476.21 -37.97)"/><path class="cls-12" d="M239,525.87c2.27,4.82,3,9.94-1.16,13.58-4.58,4-9.18,1.59-12.79-2.37-4-4.4-3.92-9.05.82-12.64C230.42,521,235.05,522,239,525.87Z" transform="translate(476.21 -37.97)"/><path class="cls-15" d="M47.23,1227.81c-5.72,2.3-9.74,1.71-12.07-3-2.7-5.49.42-9.48,4.25-12.92,3.43-3.08,6.89-2.73,9.15,1.31C51.64,1218.67,50.16,1223.74,47.23,1227.81Z" transform="translate(476.21 -37.97)"/><path class="cls-15" d="M-242.17,881.68l20,23.49c-15.39-2.39-23.38-7.32-27.38-18Z" transform="translate(476.21 -37.97)"/><path class="cls-11" d="M1392.25,821.13c4-.62,6.61,1.51,8.86,4.39l-6,5q-3.68,4.25-7.34,8.51c-5.65-3.35-12.83,7.8-17.81-1.89C1373.46,826.37,1392.09,836.63,1392.25,821.13Z" transform="translate(476.21 -37.97)"/><path class="cls-12" d="M-209,1190.2c10.35-13.72,13.23-13.66,23,.5C-193.7,1191.05-201.51,1197.62-209,1190.2Z" transform="translate(476.21 -37.97)"/><path class="cls-6" d="M-239.68,780.93c.12,1.69.23,3.38.35,5.07-14.38,8.36-21.07.24-25.82-12Z" transform="translate(476.21 -37.97)"/><path class="cls-3" d="M861.88,1166.65c3.08,4.29,4.42,9-.55,12.75-3.89,2.91-8,2.24-11.15-2-3.46-4.69-3.22-9.11,1.1-13.06S859,1162.39,861.88,1166.65Z" transform="translate(476.21 -37.97)"/><path class="cls-15" d="M-222.34,1024.58l-16.72,7.27c-10.66,3.82-9-6-5.72-7.3C-238.15,1022-229.58,1014.4-222.34,1024.58Z" transform="translate(476.21 -37.97)"/><path class="cls-7" d="M1139.79,1016.37c3.14,4.09,2.72,8.37-.78,11.55-3.68,3.32-8.42,3.08-11.21-1.18s.29-8,3.06-11.47C1134.71,1010.41,1137,1014.28,1139.79,1016.37Z" transform="translate(476.21 -37.97)"/><path class="cls-13" d="M1645.28,500.69c-16.39-8.85-5.64-14.39,2.47-20.25C1654.61,488.13,1660.26,495.67,1645.28,500.69Z" transform="translate(476.21 -37.97)"/><path class="cls-11" d="M-263.58,1050.46c-5-2.24-12.78-1.09-12.33-10,8.56-8.12,15.65-4.42,22.3,2.77l-9.94,7.27Z" transform="translate(476.21 -37.97)"/><path class="cls-6" d="M-174,963.21c5.35,2.14,11.32-5.68,16.39,1-10.5,7.31-21.25,11-32.89,2.38C-185.51,962.92-179.51,964.28-174,963.21Z" transform="translate(476.21 -37.97)"/><path class="cls-15" d="M-204.59,910.61c-10.16,3.84,1.4,13.4-4.82,18.27q-3.51-4.43-7-8.84c-3.05-7.52-5.12-14.74,5.55-18Z" transform="translate(476.21 -37.97)"/><path class="cls-15" d="M1185.28,128.94c.87,1.16,1.75,2.31,2.63,3.47-4.58,1.59-4.86,10.57-10.49,8.16-4.89-2.09-10.88-6.33-7.78-14.12l5.09.92C1178.74,124.58,1182.17,125.72,1185.28,128.94Z" transform="translate(476.21 -37.97)"/><path class="cls-7" d="M488,330.78l6.53,8.58c-3.64,7-14.09.23-17.16,8.43-3.26.6-5.48-1-7.38-3.39Z" transform="translate(476.21 -37.97)"/><path class="cls-6" d="M-180.72,791.71l6.55-3.63c1.66,4.09,2.74,8.81,8.82,8.12l7.08,8.27-11.1,3.59Z" transform="translate(476.21 -37.97)"/><path class="cls-15" d="M-235,1038.27c9.68-3.28,15.29.32,17.21,10.17-4.31,2.12-8.52,4.76-13.65,2.6C-228.67,1045.66-232.4,1042.12-235,1038.27Z" transform="translate(476.21 -37.97)"/><path class="cls-6" d="M-46,1168.26l2.81,4.63c-8.16,6.77-18,7.26-27.89,7.31C-68.17,1164.81-53.19,1174.73-46,1168.26Z" transform="translate(476.21 -37.97)"/><path class="cls-5" d="M1519.35,777.22c2.87,4.29,12.48,3.56,9.24,12.4-6.38,1.49-13,3.84-16.57-4.65Q1515.68,781.1,1519.35,777.22Z" transform="translate(476.21 -37.97)"/><path class="cls-12" d="M1113.29,171.11c-4.68,16.53-10.59,11.22-16.77.94a2,2,0,0,1,2.52-1c2.2,1.38,4,2.06,3-1.82C1106.51,165.8,1109.89,168.48,1113.29,171.11Z" transform="translate(476.21 -37.97)"/><path class="cls-10" d="M1405.34,894c-5.09-7.58-1-11.72,5.89-13.61,4.76-1.32,11.76-7.92,13.81,3.34C1419.08,888.32,1410.08,887.08,1405.34,894Z" transform="translate(476.21 -37.97)"/><path class="cls-11" d="M1654.14,768c-1.13-2.84-2.26-5.67-3.4-8.51,6.17-.92,15.06-5.88,16.73,3.21C1668.57,768.66,1659.94,769,1654.14,768Z" transform="translate(476.21 -37.97)"/><path class="cls-15" d="M1769.48,590.73c-1.36-3.43-.45-5.84,3.17-7,5.51-5.79,11.09-1,17.18-.36C1784.14,590,1778.81,595.92,1769.48,590.73Z" transform="translate(476.21 -37.97)"/><path class="cls-13" d="M239.3,562c.84,1.44,1.67,2.88,2.51,4.31-3.24,8.59-14,.2-17.65,7.81-2-2.92-2.86-6-.91-9.27Z" transform="translate(476.21 -37.97)"/><path class="cls-13" d="M-445.33,725.68c2.66-2.58,5.55-5.09,2.88-9.33l12.57,2.73c1.57,4.62.21,8.73-2.2,12.67l-.27-.81c-2.32-2.15-4.64-1.37-7,0C-442.82,730.9-444,728.22-445.33,725.68Z" transform="translate(476.21 -37.97)"/><path class="cls-12" d="M610.52,1190.69c-3.06-3.85-7.19-7.23-5.76-13.06l-.45-.06c5.22,7,15.94-.45,20.63,7.89C621.29,1190.4,615.3,1188.86,610.52,1190.69Z" transform="translate(476.21 -37.97)"/><path class="cls-10" d="M1398.12,860c-2.9,9.61-8.54,9.78-15.74,4.59C1388.33,865.51,1390,851.73,1398.12,860Z" transform="translate(476.21 -37.97)"/><path class="cls-10" d="M580.47,1194.11l4.88,7.9-15.16.17C568.94,1193.53,572.46,1191,580.47,1194.11Z" transform="translate(476.21 -37.97)"/><path class="cls-7" d="M25.05,598.44c-5.49-.8-8.56,17.5-15.92,2C14.3,598.69,19.48,597.09,25.05,598.44Z" transform="translate(476.21 -37.97)"/><path class="cls-6" d="M-280.17,774.53l-5.17-7.65c7.2-.43,12.61,3.85,18.45,7C-271.17,777.39-275.47,780.23-280.17,774.53Z" transform="translate(476.21 -37.97)"/><path class="cls-6" d="M-177.83,951.85c3.13-2.78,6-6.77,10.64-5.74,1.4.31,2.89,4.2,2.82,6.4-.16,5.56-5.61,3.28-8.5,4.91Q-175.36,954.65-177.83,951.85Z" transform="translate(476.21 -37.97)"/><path class="cls-12" d="M-308.95,1009.45c5.1-2.41,9.4-.07,13.8,2.35-6.2,7.37-9.75,1.16-13.77-2.53Z" transform="translate(476.21 -37.97)"/><path class="cls-7" d="M602.56,270.41l2,8.47c-6,4.06-11.06,5.06-12.82-4.12Z" transform="translate(476.21 -37.97)"/><path class="cls-5" d="M379.83,366.39c-3.43,7.66-7.72,9.89-13.59,2.16Z" transform="translate(476.21 -37.97)"/><path class="cls-11" d="M1629.31,758.22c-5.08,5.59-9.1,2.83-12.9-1.64C1621.06,754.38,1625.31,755.34,1629.31,758.22Z" transform="translate(476.21 -37.97)"/><path class="cls-15" d="M1151.83,135.1c0-.06.63-2,1.82-2.47a5.92,5.92,0,0,1,4.85.47c1,.68,1.8,3.57,1.28,4.1C1157.88,139.16,1155.62,138.32,1151.83,135.1Z" transform="translate(476.21 -37.97)"/><path class="cls-7" d="M1122.44,957.14c2.18-1.74,4.45-3.09,7.38-1.84-1.35,3.3,3.89,7.19-.5,9.57C1128.63,965.25,1124.81,959.86,1122.44,957.14Z" transform="translate(476.21 -37.97)"/><path class="cls-6" d="M1526,360.88c-4.71,2.71-7.47-.09-10-3.54C1520.68,354.63,1522.85,359.11,1526,360.88Z" transform="translate(476.21 -37.97)"/><path class="cls-13" d="M-325.66,752.72c-5,3.31-8.27,1.22-10.69-3.47Z" transform="translate(476.21 -37.97)"/><path class="cls-11" d="M377.7,440.05c1.25,3.78,1.1,7.13-2.83,9.33C374.89,446,369.6,441,377.7,440.05Z" transform="translate(476.21 -37.97)"/><path class="cls-12" d="M1455,848.13c1.23,1.9,2.67,3.88,0,5.67-3,2-5.22.52-7.22-1.76C1449.43,849.33,1451.21,846.85,1455,848.13Z" transform="translate(476.21 -37.97)"/><path class="cls-13" d="M678,255.29c-3.82,4-7.59,4.37-11.27-.18C670.51,251.8,674.24,253.44,678,255.29Z" transform="translate(476.21 -37.97)"/><path class="cls-6" d="M1460.32,855.62q.43-3,.89-5.91l6.6-2.53c0,2.3.53,4.81-.2,6.86C1466.23,857.9,1463.32,857.7,1460.32,855.62Z" transform="translate(476.21 -37.97)"/><path class="cls-15" d="M-259,887.53c.77,2.08,1.54,4.17,2.32,6.25-1-.16-2.34,0-2.82-.55-1.67-2-1.49-4.12.54-6A2.17,2.17,0,0,1-259,887.53Z" transform="translate(476.21 -37.97)"/><path class="cls-13" d="M692.42,251.88l6.92,1.51c-2.56,4.86-5.18,8-8.17.28A3.35,3.35,0,0,1,692.42,251.88Z" transform="translate(476.21 -37.97)"/><path class="cls-12" d="M1186.89,198.91l-2.18-4.65c4.64-.08,1.71,2.91,1.89,4.64Z" transform="translate(476.21 -37.97)"/><path class="cls-11" d="M1091.18,979.53c-.14-2.54-.29-5.07-.43-7.61C1091.51,974.42,1099.41,976.52,1091.18,979.53Z" transform="translate(476.21 -37.97)"/><path class="cls-13" d="M917.84,195.29c-1.69-2.57-3.29-5.15-.74-8.11l2.85,3.51C919.24,192.22,918.54,193.76,917.84,195.29Z" transform="translate(476.21 -37.97)"/><path class="cls-12" d="M-349.07,879.44q.94-3.59,1.9-7.18c.9.86,1.77,1.76,2.62,2.68a18.42,18.42,0,0,0-.2,2.79Z" transform="translate(476.21 -37.97)"/><path class="cls-12" d="M1091.63,167.76l-.23-3c3.1.88.57,1.93.08,2.92Z" transform="translate(476.21 -37.97)"/><path class="cls-10" d="M1102.09,169.2c.94,3.88-.85,3.2-3,1.82A4.36,4.36,0,0,1,1102.09,169.2Z" transform="translate(476.21 -37.97)"/><path class="cls-11" d="M425.38,1209.75a8.42,8.42,0,0,1-1.7-2.73c1.7-2,3.39-1.77,5.09,0Z" transform="translate(476.21 -37.97)"/><path class="cls-6" d="M1537.23,365a4.75,4.75,0,0,1-6.16-1Z" transform="translate(476.21 -37.97)"/><path class="cls-6" d="M-188,1019.19l-.66,3.14-2.3-2.62A2.24,2.24,0,0,1-188,1019.19Z" transform="translate(476.21 -37.97)"/><path class="cls-6" d="M-252.48,843.18a6.92,6.92,0,0,1,7,3.13Z" transform="translate(476.21 -37.97)"/><path class="cls-13" d="M690.91,253.65A4.2,4.2,0,0,1,685,253Z" transform="translate(476.21 -37.97)"/><path class="cls-6" d="M-260.6,839.7a7.13,7.13,0,0,1,7.59,3Z" transform="translate(476.21 -37.97)"/><path class="cls-16" d="M1174.73,127.37l-5.09-.92Z" transform="translate(476.21 -37.97)"/><polygon class="cls-12" points="1927.86 802.26 1928.67 802.98 1927.94 803.34 1927.86 802.26"/><path class="cls-6" d="M-238.74,847.74a10,10,0,0,0-3.14,1.43l-3-2.28Z" transform="translate(476.21 -37.97)"/><path class="cls-11" d="M529.1,1208c-.3-.87-.61-1.75-.92-2.63l2.56,2-.65.75Z" transform="translate(476.21 -37.97)"/><path class="cls-13" d="M-423.16,737.84l6.36,2.48Z" transform="translate(476.21 -37.97)"/><path class="cls-5" d="M-439.32,730.92c2.33-1.35,4.65-2.13,7,0C-434.69,734.85-437,731.93-439.32,730.92Z" transform="translate(476.21 -37.97)"/><polygon class="cls-12" points="167.28 971.3 166.5 971.37 167.25 971.49 167.28 971.3"/><path class="cls-16" d="M-349.81,880.6c-.39.79-.77,1.58-1.15,2.37-.13-.86-.25-1.72-.38-2.58Z" transform="translate(476.21 -37.97)"/><path class="cls-9" d="M1401.12,796.78a21.53,21.53,0,0,1,3.12.15c.15,0,.14,1.06.2,1.63Z" transform="translate(476.21 -37.97)"/><path class="cls-17" d="M679,283.46c14.37-6.61,28.6-2.36,42.86.51l6.87,9c7.32,21.35,17.55,26.81,38,20.16,6.54-2.11,12.93-4.68,19.49-6.69,10.61-3.24,20.51-4.56,28.77,6.05,5.19,6.67,15.57,10.85,21.67,8.29,13.16-5.54,26.87-4.73,40.12-7.27,25.56-4.91,51.82-11.21,77.32.19,10.72,4.79,19.48,6.31,31.75,2.12,14.23-4.88,30.68-4.13,46.16-4.13,7.35,0,15,4.24,17,12.61,2.31,9.57-5.64,11-12.17,13.22a72.58,72.58,0,0,0-35.36,26.26c-12.27,16.6-29.8,29.49-37.57,52.68A106.05,106.05,0,0,0,1007.71,397c17.74-13.19,28.72-12.29,40.69,5.57,8.93,13.32,20,19,35.52,20.15,20.58,1.58,41.82,4.3,57.84,18.62,11.54,10.32,22,17.27,37.85,10.91,4.43-1.77,10.16-.18,13.83,3.89,8.85,9.81,19.36,8.23,29.17,3.19,11.12-5.72,19-3.41,25.77,6.32,5.06,7.32,10.25,12.3,15.36.1,3.57-8.52,10.07-13.59,19-12.18,8.67,1.38,10.53,9.59,12.19,17.1.81,3.65,2.89,7.2,2.91,10.8.08,11.33,17.39,18.09,9.67,30.29-9.49,15-21.47-.32-32.31-.4-16.13-.12-19.29,3.39-11.91,17.61,5.08,9.77,8,21-2.4,29-30.21,23.46-56.94,50.84-86.19,75.35-7.61,6.38-14.37,11.39-9.4,23.16,2.83,6.71-.64,13.29-6.91,17.92q-15.87,11.7-31.38,23.92c-8.26,6.48-14.7,4.64-20.57-3.43s-11.77-16.27-18.4-23.75c-7.79-8.77-17.58-9.88-26.77-2.67-6.79,5.32-20.26,9.22-14.3,20.68,6.16,11.86,9.48,24.95,19.18,35.7,25,27.67,23.74,33.33-4.58,56.56a55.92,55.92,0,0,0-8.14,7.68c-15.8,19.4-15.55,51,2.45,59.64,18.56,8.93,26.23,26.23,37.54,40.6,8.73,11.08,3.25,28.72-10.18,29.74-26.4,2-45.75,18.16-68.42,27.53-11.8,4.88-28.82,13.14-36.71,8.46-21.58-12.82-40.84-.11-55.55,5.92-26.11,10.71-46.06,34.19-64.42,56.83-3.71,4.57.1,8.08,2.33,11.71l-5.44,2.66c-1.78-7.36-5.85-10.12-13.29-7-11.8,4.9-24.42,5.25-36.9,6.27l-10,4.71-8.32.4-32.11,10c-1.81-2.14-3.16-5.68-6.82-3.81-2.88,1.47-1.16,4.15-.62,6.36l-3.66,2.74c-4.8-11.41-14.21-16.48-23.65-8.74-21.73,17.81-48.87,27.66-68.69,48l.45,0c-8.16-3-10,.16-7.48,7.66-1.79,2.35-4,3.9-7.11,3.47-16.48-16.2-25.82-12.51-34.54,13.64-7.93,23.8-35.28,35.49-58.58,33-23.63-2.51-46.83-13.09-71.48-6.17-19.36,5.44-29.93-12.45-44.58-19.13-14.93-6.81-29.29-13.24-45.79-13.06-7.46.08-13.3-2.83-18.48-7.55-22.8-20.75-79.59-29.19-105.81-15.27-9.27,4.92-16.66,3.54-23-4.51-3.87-4.91-7.39-10.1-11.46-14.83-8.84-10.27-12.64-18.42,4.65-24.62,14-5,19.08-18.41,23.42-31.53,7.94,5.12,16.13-2.44,24.12.48,7.53,10.43,16.95,6.9,26.34,3.54l2.29,3.15c2.86,8-.46,19.86,12.79,21.47s18.07-7.93,22.66-17.63c.78-1.67,1.58-3.33,2.37-5,5.5-5.26,21-.76,15.92-16.33,10.14-8.63,25.46-8.29,33.76-20.8,5.49-8.27,14.64-14.91,9.09-26.19-5.19-10.56-13-18.35-26.29-17.53-21,1.3-39.84-14.09-62.09-7.6-6.45,1.88-10.89-4.1-5.85-12.47,3.68-6.09,9.95-11.2,14.71-9.69,19,6,36.8-8.25,55.9-1.12,10.23,3.81,22.2,4.92,32.82-1.4,3.16-1.88,6.89-4.07,6.71-8.34-.19-4.43-4-5.82-7.74-7-4.17-1.28-8.26-4-12.41-4-35.49-.33-62.74-18.3-87.43-41.07-8.07-7.44-13.84-7.36-22.72-1.38-26.79,18.05-49.59,10.13-58.87-20-4.15-13.45-11.91-18.51-25.34-13.65-7.61,2.76-15.58,4.83-21.66,10.75-20,19.43-43.67,21.69-69.72,16.16-18-3.82-26.28-14.55-29.07-32s7.71-26.22,20.48-31.91c26.55-11.84,53.47-20.39,82.58-5.29,12.61,6.55,24.92-1.89,27.76-18.79,2.05-12.17,6.54-21.09,17.06-27.2,7.65-4.44,7.07-12.54,8.75-19.77,5.29-22.88,11.18-27.25,34.46-25.87,5.12.3,9.71.14,14.28-2.87,55.81-36.67,111.78-73.08,163.6-115.4,6.08-5,12.2-9.58,7-18.57-10.55-18.17.26-29.17,13.2-39.44,20.6-16.35,22.12-23.51,6.75-45.79-6.8-9.85-6.6-17.5.21-27.09,13.68-19.29,30.89-33.24,52.1-44.1,25.59-13.1,53.79-17.14,79.82-27.06,23.81-9.08,51.3-21.58,54.33-53.24C665,290.45,680,294.26,679,283.46ZM447,943.16c-6.82,5.08-8.82,11.79-6.1,18.63a23.62,23.62,0,0,0,23.63,15.41c11.72-.48,23.35-3.58,35-5.65,4.71-.85,8.07-3.39,8.49-8.54s-2.41-8-7-9.64c-11.7-4.21-23.21-9-35.06-12.72C459.44,938.6,452.32,937.89,447,943.16ZM652.1,806.42c-12.24.22-21.09,3.27-20.25,15.39.58,8.46,7.92,10.32,15.47,8.35,2.12-.55,7-4,4.39-4.81C632.47,819.24,651.64,813.72,652.1,806.42Zm-248.68-23.3c-2.22,2.87-7.81,5.88-.52,9.18,3.64,1.65,2.75,11.15,10.25,5.81,5.49-3.91,6.22-9.62,3.18-14.44S408.08,779.47,403.42,783.12Zm169.51-48.88c-5.82,3.52-4.6,8.48-2,13,1.84,3.18,5.36,6.65,8.86,2.44s6.22-10,3-15.54C580.15,729.73,576.23,732.61,572.93,734.24Zm31.22,331.9c-2.61-2.4-6.1-4.27-9.64-2-4.6,2.93-3.69,7.46-1.24,11.38,2,3.14,4.88,6.65,8.65,2.73C604.82,1075.22,607.1,1071.15,604.15,1066.14ZM435.47,891.72c1.1-.27,2.73-.22,3.15-.9s-.39-2.11-.66-3.22c-1.1.27-2.73.22-3.14.9S435.2,890.61,435.47,891.72ZM1143.63,677a4.52,4.52,0,0,0-1.37-.92c-.19,0-.57.71-.87,1.1a4.71,4.71,0,0,0,1.37.92C1143,678.18,1143.33,677.43,1143.63,677Z" transform="translate(476.21 -37.97)"/><path class="cls-14" d="M860.46,1029.59c-2.23-3.63-6-7.14-2.33-11.71,18.36-22.64,38.31-46.12,64.42-56.83,14.71-6,34-18.74,55.55-5.92,7.89,4.68,24.91-3.58,36.71-8.46,22.67-9.37,42-25.52,68.42-27.53,13.43-1,18.91-18.66,10.18-29.74-11.31-14.37-19-31.67-37.54-40.6-18-8.66-18.25-40.24-2.45-59.64a55.92,55.92,0,0,1,8.14-7.68c28.32-23.23,29.54-28.89,4.58-56.56-9.7-10.75-13-23.84-19.18-35.7-6-11.46,7.51-15.36,14.3-20.68,9.19-7.21,19-6.1,26.77,2.67,6.63,7.48,12.51,15.66,18.4,23.75s12.31,9.91,20.57,3.43q15.52-12.18,31.38-23.92c6.27-4.63,9.74-11.21,6.91-17.92-5-11.77,1.79-16.78,9.4-23.16,29.25-24.51,56-51.89,86.19-75.35,10.44-8.1,7.48-19.28,2.4-29-7.38-14.22-4.22-17.73,11.91-17.61,10.84.08,22.82,15.39,32.31.4,7.72-12.2-9.59-19-9.67-30.29,0-3.6-2.1-7.15-2.91-10.8-1.66-7.51-3.52-15.72-12.19-17.1-8.92-1.41-15.42,3.66-19,12.18-5.11,12.2-10.3,7.22-15.36-.1-6.73-9.73-14.65-12-25.77-6.32-9.81,5-20.32,6.62-29.17-3.19-3.67-4.07-9.4-5.66-13.83-3.89-15.87,6.36-26.31-.59-37.85-10.91-16-14.32-37.26-17-57.84-18.62-15.56-1.2-26.59-6.83-35.52-20.15-12-17.86-23-18.76-40.69-5.57a106.05,106.05,0,0,1-43.82,19.46c7.77-23.19,25.3-36.08,37.57-52.68a72.58,72.58,0,0,1,35.36-26.26c6.53-2.25,14.48-3.65,12.17-13.22-2-8.37-9.62-12.61-17-12.61-15.48,0-31.93-.75-46.16,4.13-12.27,4.19-21,2.67-31.75-2.12-25.5-11.4-51.76-5.1-77.32-.19-13.25,2.54-27,1.73-40.12,7.27-6.1,2.56-16.48-1.62-21.67-8.29-8.26-10.61-18.16-9.29-28.77-6.05-6.56,2-13,4.58-19.49,6.69-20.48,6.65-30.71,1.19-38-20.16l8.25-1.57c.77,1,1.53,2,2.29,2.95,16,12.5,32.41,3.82,48.28.23,11.29-2.54,21.29-6.24,31.21,3.74,7.42,7.47,15.7.77,22.51-2.27,11.54-5.16,21.79-8.13,33.35.26,5.45,3.95,14.09,5.81,19.71,1.71,24.08-17.57,48.18-6.45,71.85-.58,19.65,4.87,38.92,9.33,59,4,7.4-1.95,14.53-.55,19.28,4.39,7.23,7.53,18.68,5.78,24.84,10.72,22.36,17.91,49.72,8.7,73.9,16.41,19.18,6.12,41.2.35,60.63,9,17.11,7.64,35.14,13.9,45.51,31.58,5.2,8.86,14.43,11.47,24.06,12.57,14.15,1.61,22.8,7.59,23.25,23.67.34,12.3,17.55,19.3,33.95,12.63,16.86-6.86,29.82-11.62,27.12,15.09-.25,2.41,2.35,7,4.36,7.45,25.76,6.13,33.34,30.67,48.45,47.43,7.53,8.35,13.56,18,20.71,26.72,6.71,8.15,10.74,19.67,20.78,23.65,11.24,4.46,16.91-8.44,25.8-12.23,11.31-4.81,19.68-5.53,29,6.31,21.36,27.17,38.11,56.78,54,87.21,7.18,13.7,17.78,25.6,26.9,38.27,10.22,14.21,9.06,18.54-7.74,19.66-19.71,1.31-34.47,14-51.9,20.38-24.3,8.94-49.89,10.51-74.56,16.91-14.26,3.7-27.18,9.12-38.11,19-13,11.8-27,18.69-45.91,15.56a48.06,48.06,0,0,0-36.91,8.6c-11.21,8-24.17,15.12-38.86,17.41-10,1.56-18.22,7.84-26,14.31-4.78,4-9.54,8.13-16.63,7.32-13.78-1.57-21.67,3.34-20.83,18.64.34,6.07-2.72,10.32-9.31,12.26-25.68,7.54-44.48,26-64.72,42-8.07,6.38-17.58,9.29-26.74,13-8.12,3.31-12,7.91-10.46,17.12,3.69,21.4-17.66,22.91-27.62,33.29-7.63,7.95-14.74,1.22-20.88-4.5-4.94-4.61-10.1-4.19-15.27-.39-37.5,27.56-82.32,34.19-126,44-10.4,2.33-21,4.09-30.32,9.34-14.65,8.26-14.73,17.43-.42,26.13,6.43,3.92,11.78,7.24,14.54,15.66,6.08,18.5-7.4,21.77-18.57,27.49-5.28-4.18-6.15-15.61-17.14-10.46l-7.09-8.88-5.27-.71Z" transform="translate(476.21 -37.97)"/><path class="cls-8" d="M285.14,1199.09c3.21,5.13,8.77,13.06-2.7,12.16-16.9-1.32-31.69,5.63-47.4,8.42-21.57,3.84-42.55,10.91-63.81,16.5-4.8,1.26-9.71,2.33-14.38-.64,2.85-16.21-9.82-25-18-35.37-10.57-13.48-12.14-24.68,3.8-34.08,15.58-9.19,13.47-18,3.86-31.58-25.64-36.25-33.43-77.59-27.74-121.28,1.18-9,3.89-17.75-4.42-23.94-9.06-6.75-14.64,2.33-21.17,6.35a23.45,23.45,0,0,0-3,2.26c-6.55,5.66-15,9.49-22.55,6.62-30.15-11.44-64.69,20.69-93.31-11-10-11-8.14-19,1.17-23.94C-.6,957.05,17,935.28,42.47,925.45c2.86-1.1,6.21-5.06,7.94-4.34,18.9,7.87,39.35-6.74,57.81,4.16,15.84,9.34,29,.41,41.49-7.11,8.63-5.2,6-18.32-3.92-22.58-6.33-2.73-13.79-4.18-20.19-1.29-20,9-39.52,2.61-58.34-2.5C42.11,885,27.69,863.27,21.59,841.23,16,821.16,8.72,803.8-4.64,788.76c-9.77-11-8.87-20,.21-31.17C9.88,739.9,27.8,724.7,35.81,702.37c1.47-4.09,4.88-8.07,4.8-12.06-.91-44.54,42.19-48.61,65.23-71,4-3.9,10.73.13,16.24,1,10.08,1.61,21.39,6.53,27.48-7.36.23-.53,1-1.38,1.25-1.3,26.55,7,48.63-17.68,75.16-10.65-16.08,9.72-30.76,18.3-38.21,39.24-5.86,16.44-25.64,27.07-43,34-28.59,11.49-50.75,31.91-74,50.57-19.8,15.92-22.28,68.44-12.07,92,20.2,46.55,58.79,51,102.91,38.15,4.7-1.37,10.78-3.18,14.64-1.39,22.17,10.29,46.52,13,69.29,21-7.06,3.82-14.34,7.28-21.08,11.6-3.34,2.14-8.9,4.08-7.44,9.44s7.35,3.24,11.1,4.86c10.25,4.44,22.67-3.94,32,5.55a30.21,30.21,0,0,1-24.54,7.53c-26.63-4.21-40.77,15.64-58.9,27.94-3.17,2.14-6,5-4.3,9.35s5.12,7.42,10,7.06a105.58,105.58,0,0,0,16.66-2.62c19.89-4.76,30,7.85,39.53,21.76,8.28,12.13-.68,19.45-7.39,27.67-2.73,3.33-3.87,7.94-6.51,11.37-7,9.09-14.77,13.32-20.56-.71-4.26-10.33-9.52-9.08-14.65-2-4.15,5.72-9.39,9.89-14.42,14.55-8.3,7.69-13.17,16.93-8.42,28.48,4.57,11.12,2.19,20.58-5.2,29.6s-7.16,17.62.87,26.81c10.23,11.71,18.94,23.49,17.64,41.48-1.06,14.85,34.4,49.23,49.48,52.91,8.52,2.08,13-3.48,17.5-8.26C263.79,1181.2,268.93,1181.07,285.14,1199.09Z" transform="translate(476.21 -37.97)"/><path class="cls-8" d="M1615.89,538.06c5.95,3.31,2,14.13,11.31,14.91,2.33,2.2,4.68,3.73,8.28,2.63,4.48-1.37,9.31-10,13.56-1.47,3.36,6.72,9.87,15.7,2.23,22.4-14.62,12.82-11.63,32.21-19.71,47.38-2.6,4.88-3.23,14.93-.16,18,15.1,15.1,11,33.62,12,51.42.31,5.83.37,11.25-4.06,15.65-7.47,7.42-14.72,15.1-22.56,22.11-6.69,6-14.47,12.1-22.19,1.77-6.48-8.69-19.83-17.3-3.66-29.14l9-6.84c2,1,4.5,3.23,5.73,2.65,3.76-1.76,1.47-4.7.24-7.21,13.21-14.27,8.1-30.05-.29-42.68-15.08-22.7-8.45-46.7-2-67.39,4.39-14.08,6.74-22.83-2.35-34-2.25-2.76-2.88-6.85-4.25-10.32l9-6.51C1608.64,534.65,1610.72,538.66,1615.89,538.06Z" transform="translate(476.21 -37.97)"/><path class="cls-4" d="M1224.61,335.39c-3.06-5-8.63-2.7-12.82-4.41-9.44-4.65-13.33-17.11-24.43-18.81-31.44-4.82-56-23.5-81.77-39.7-9.35-5.89-17.26-9.74-26.67-1-7.43,6.93-14.89,8.81-22.11-.86-5.61-7.52-14.67-8.73-22.09-6.16-10.11,3.51-18.19,1.11-26.75-3.2-9.1-4.58-19.06-7.5-28.92-5.27-33.36,7.53-67.11-2.23-100.45,3-5.33.84-9.55-2.24-13.94-4.53,4.09-6.53,13.11-9.3,13.92-18.33,5.32,1.61,10.65,3.16,15.93,4.86,33.22,10.7,65.4,6.3,97-6.62h-.21c.79,1,1.59,1.94,2.38,2.92,3,4.15,6.81,9.43,11.77,7.88,17.39-5.46,34.07,2.33,50.65,1.6,25.68-1.13,47.45,6.88,68.8,18.86,39.28,22,74,53,120.26,61.43,1.57.29,2.83,2.33,4.23,3.55C1242.1,337.32,1232.36,331.16,1224.61,335.39Z" transform="translate(476.21 -37.97)"/><path class="cls-8" d="M864.66,254.5c4.39,2.29,8.61,5.37,13.94,4.53,33.34-5.23,67.09,4.53,100.45-3,9.86-2.23,19.82.69,28.92,5.27,8.56,4.31,16.64,6.71,26.75,3.2,7.42-2.57,16.48-1.36,22.09,6.16,7.22,9.67,14.68,7.79,22.11.86,9.41-8.79,17.32-4.94,26.67,1,25.73,16.2,50.33,34.88,81.77,39.7,11.1,1.7,15,14.16,24.43,18.81-27.35-5.25-56.47-2.21-81.38-19-11.12-7.49-23.19-14.35-37.7-13.07-10,1.37-12.27-19.58-25.55-8.95-9.76-.66-19.32-6.27-29.31-1.15-34.71-6.79-69.43-13.51-104.12-20.41a125.7,125.7,0,0,0-44.6-.58c-11.93,1.92-21,0-27.09-10.89A27.51,27.51,0,0,0,864.66,254.5Z" transform="translate(476.21 -37.97)"/><path class="cls-7" d="M1258.52,881.75c-9.19,7.39-17.91,16-31.41,9.46a5.17,5.17,0,0,0-7.49,3.33c-5.33,24.64-25,31.22-45.56,37.05-11.31,3.22-22.55,6.71-31.41,15.08-4.18-3.18-10.4,4.9-13.28-1.76-2.41-5.54,3.29-8.62,6.16-12.57,5.8-8,12.83-15.1,15.4-25.26,1.59-6.29,6.35-10.26,12.89-12.47,25.11-8.51,47.23-22.21,67.54-39.2,8.33-7,17.86-12.36,28.42-3-24.65,16.5-24.65,16.5-1.26,29.39Z" transform="translate(476.21 -37.97)"/><path class="cls-8" d="M395.34,512.22l5.68-3.49c7.57,2.52,11.5-1,13.26-8,3-3.14,6.15-4.06,9.68-.87,7.15,10,5.86,18-1.92,28.4-20.33,27.12-48.54,44.61-74.58,64.77-3.65,2.82-10.41,5.51-13.91,4-22.46-9.6-42.51,2-63.4,5.85-6.31,1.17-12.43,2.58-17.12-3.55,9.89-6.22,21.45-9.58,30-18.09,6.78-6.75,15.35-4.85,22.89-2.76,18.57,5.15,32.85-.51,47.44-12.54,16.18-13.34,33.68-24.58,36.72-47.62C396.22,520.07,396.38,516.66,395.34,512.22Z" transform="translate(476.21 -37.97)"/><path class="cls-4" d="M260.12,906c-9.31-9.49-21.73-1.11-32-5.55-3.75-1.62-9.68.41-11.1-4.86s4.1-7.3,7.44-9.44c6.74-4.32,14-7.78,21.08-11.6,19.36-6.7,39.44-1.67,59.1-3.55,4.86-.46,7.41,4.05,10.12,7.47-1.87,4.83,1.44,7.88,3.84,11.25-11.12,6.53-21.92,12.29-36.11,9.36C275.13,897.6,266.51,900.23,260.12,906Z" transform="translate(476.21 -37.97)"/><path class="cls-7" d="M1414.17,342.05c-8.72,11.78-22.48,10.23-34.54,12.5-10.89,2.05-22.37.21-33,5-5,2.28-11.45,2.45-12,9.79s4.93,9.2,10.63,10.62c9.77,2.44,15.86,9.43,21.21,17.31l-11.94,9.13c-18.7-4.33-26.87-19.61-35.63-34.26,5.63-8.73,6.42-18.78,8-28.67,1.53-9.28,7.81-14.4,16.89-14.53,7.36-.11,17.34-5.37,20.75,6.32,2.09,7.16,7.52,6.82,12.76,8.72C1390.11,348.62,1401.83,340.57,1414.17,342.05Z" transform="translate(476.21 -37.97)"/><path class="cls-8" d="M1388,797.47l-7.07,2.8c-5.1-8-15.61-3.95-21.74-9.69-1.29-2.79-3.4-6.86.66-7.83,22.11-5.27,40.6-20.22,64.91-20.74,23.66-.5,44.11-15.8,67.23-20.6.62,19.79-17.93,16.92-28.18,21.6-12.63,5.76-27.82,5.71-41.73,8.93C1407.11,775.38,1395,783.12,1388,797.47Z" transform="translate(476.21 -37.97)"/><path class="cls-5" d="M1258.52,881.77c-23.39-12.89-23.39-12.89,1.26-29.39,10.86,2.57,21.68,4,32.31-1,8.2,8,21.55-6.5,28.61,6.54C1304.78,878.41,1277.78,870,1258.52,881.77Z" transform="translate(476.21 -37.97)"/><path class="cls-4" d="M1271.48,365.82l-2.28-3c-3.67-5.44-3.63-10.8,1.46-15.11,15.88-13.41,8.71-19.54-7-23.19,11.93-6.4,23.78-5.37,35.44.63,10.42,5.37,13.44,15.3,6.1,22.89-12.6,13.05-4.14,18.87,5.49,25.7-7.39,5-12.61,1.88-17.56-4.21C1287.14,362.21,1279.71,361.11,1271.48,365.82Z" transform="translate(476.21 -37.97)"/><path class="cls-5" d="M303.93,1019.39l-2.29-3.16c-7.66-9.48-17.09-5.84-26.34-3.54-8-2.92-16.18,4.64-24.12-.48-.24-7.43,9.29-7.86,10.57-16.2.87-5.71,10.86,2.93,19.27.46,13.75-4,29.4-15.3,45-2.89-3.48,4.55-12.06,1.95-13.05,9.25-.09.63,6,2.1,9.16,3.18C321.84,1018.34,313.31,1019.44,303.93,1019.39Z" transform="translate(476.21 -37.97)"/><path class="cls-10" d="M1590.29,467.41c-8,11.85,13,18.63,5.32,30.43-14.64-1.09-14.86,7.74-12.6,18.28l-14.21,7.27c-.9-4.58-1.75-9-2.59-13.33,11-7.68,6-18.38.1-23.25-13.06-10.68-6.89-16,2.91-22.19C1575.91,468.08,1584.11,460.11,1590.29,467.41Z" transform="translate(476.21 -37.97)"/><path class="cls-13" d="M864.66,254.5a27.51,27.51,0,0,1-2.62,2.44l-5.9,4.17c-9.93-14.71-26.55-6-39.59-10.55-6-2.1-7.18-4.18-8.54-8.57l14.41-5.52c3.05,4,6.7,8.67,12,5.61,10.65-6.11,23.23-5,34-10.21a3.39,3.39,0,0,1,2.61-.23l7.55,3.51,0,1C877.77,245.2,868.75,248,864.66,254.5Z" transform="translate(476.21 -37.97)"/><path class="cls-8" d="M1263.62,324.53c15.75,3.65,22.92,9.78,7,23.19-5.09,4.31-5.13,9.67-1.46,15.11-9.4,4.65-11.77-1.22-10.62-8.39,2.08-12.89-4.16-13.93-13.72-10.87-9.25,3-15.7,0-20.25-8.18,7.75-4.23,17.49,1.93,24.78-4.74Z" transform="translate(476.21 -37.97)"/><path class="cls-7" d="M1378.44,388.25c2.21-2.11,5.57-3.84,6.42-6.41,4.78-14.42,14.24-18.55,28.48-14.85,2.46.64,5.67-1.57,8.53-2.46l21.08,2.82c-17.54,11.54-37.26,18-56.94,24.57C1382.63,392.46,1380.39,390.65,1378.44,388.25Z" transform="translate(476.21 -37.97)"/><path class="cls-4" d="M1318.92,372.17c8.76,14.65,16.93,29.93,35.63,34.26-12.73,2.13-24.08,13.7-38.31,5.62,1.86-4.82-1.45-7.88-3.86-11.24.24-1.76.48-3.52.71-5.27,2.79-6.3,4.22-12.58-.15-18.81Z" transform="translate(476.21 -37.97)"/><path class="cls-8" d="M279.7,947.71c7.6-3.84,16.3-10.28,24.5-1,4.58,5.2.35,10.61-4.61,14.16-8.6,6.18-17.73,7.43-25.33-.81C269.17,954.59,275.7,951.57,279.7,947.71Z" transform="translate(476.21 -37.97)"/><path class="cls-13" d="M322.1,1006c-3.2-1.08-9.25-2.55-9.16-3.18,1-7.3,9.57-4.7,13.05-9.25,9.08,8.38,22.32,1,31.68,8.32,5.09,15.57-10.42,11.07-15.92,16.34C337,1011.32,333.29,1002.64,322.1,1006Z" transform="translate(476.21 -37.97)"/><path class="cls-6" d="M1320.7,857.92c-7.06-13-20.41,1.49-28.61-6.54,5.47-12.53,15.85-18.26,28.61-20.72.53,2.84,1,5.68,1.58,8.52C1325.47,845.74,1327.65,852.21,1320.7,857.92Z" transform="translate(476.21 -37.97)"/><path class="cls-8" d="M1312.94,376.73c4.37,6.23,2.94,12.51.15,18.81-10.3-14.9-28.81-18.32-41.61-29.72,8.23-4.71,15.66-3.61,21.61,3.72,5,6.09,10.17,9.18,17.56,4.21C1311.41,374.75,1312.17,375.74,1312.94,376.73Z" transform="translate(476.21 -37.97)"/><path class="cls-7" d="M1067.16,290c13.28-10.63,15.51,10.32,25.55,8.95-9.19,7.37-18.31,15.31-30,4.05Z" transform="translate(476.21 -37.97)"/><path class="cls-12" d="M276.66,1133.31c-2.81,6.79-4.94,14.66-9.3,21-1.57,2.27-9.16.23-10.29-4.6-1.53-6.51-4.63-13.77,6.46-17.21C268.33,1131,271.54,1128.35,276.66,1133.31Z" transform="translate(476.21 -37.97)"/><path class="cls-15" d="M442.35,487.74c-9.12-13.46,3.58-24,4.77-36.12C458.12,465.32,457.84,477.53,442.35,487.74Z" transform="translate(476.21 -37.97)"/><path class="cls-10" d="M1067.16,290l-4.47,13c-13.73,4.84-18.34-6.32-24.84-14.15C1047.84,283.7,1057.4,289.31,1067.16,290Z" transform="translate(476.21 -37.97)"/><path class="cls-9" d="M739.25,294.37c-.76-1-1.52-2-2.29-2.95l-9.12-12c7.93,3.9,16.18-11.22,24,.38C764.9,299.61,740.6,287.07,739.25,294.37Z" transform="translate(476.21 -37.97)"/><path class="cls-10" d="M1586.51,519.17c7-.31,13,11.89,20.81,1.71a3.91,3.91,0,0,0,2.39,2.62l2.28,3.3-6,4.65-9,6.51C1589.18,534.09,1588.32,526.36,1586.51,519.17Z" transform="translate(476.21 -37.97)"/><path class="cls-9" d="M1359.16,790.58c6.13,5.74,16.64,1.65,21.74,9.69l-1.59,4.82L1372,807c-1.48-11.81-16.32-1.63-19-11.51Z" transform="translate(476.21 -37.97)"/><path class="cls-6" d="M503.15,1193.49c-5.16-.3-10.56,6.35-15.49-.51-1.69-7.53,3.84-7.68,8.64-8.16C502.82,1184.18,501.75,1189.89,503.15,1193.49Z" transform="translate(476.21 -37.97)"/><path class="cls-17" d="M877.38,1045.08c11-5.15,11.86,6.28,17.14,10.46C883.44,1060.85,882.42,1049.68,877.38,1045.08Z" transform="translate(476.21 -37.97)"/><path class="cls-8" d="M226,601.05q8.88-6.12,15.81,2.12Q232.92,609.31,226,601.05Z" transform="translate(476.21 -37.97)"/><path class="cls-8" d="M1312.38,400.81c2.41,3.36,5.72,6.42,3.86,11.24C1307.57,410.84,1307,406.86,1312.38,400.81Z" transform="translate(476.21 -37.97)"/><path class="cls-8" d="M318.62,889.76c-2.4-3.37-5.71-6.42-3.84-11.25C323.45,879.73,324.06,883.71,318.62,889.76Z" transform="translate(476.21 -37.97)"/><path class="cls-4" d="M1605.84,692.32c1.23,2.51,3.52,5.45-.24,7.21-1.23.58-3.78-1.69-5.73-2.65Z" transform="translate(476.21 -37.97)"/><path class="cls-17" d="M865,1035.49l5.27.71Z" transform="translate(476.21 -37.97)"/><path class="cls-9" d="M1348.35,795c-5.1,2.09-5.72.24-3.58-4.06C1346,792.33,1347.15,793.69,1348.35,795Z" transform="translate(476.21 -37.97)"/><path class="cls-13" d="M-150.63,807.28c4.66-11.58,16-11.68,25.54-14.78,5.35,6.84,16.28-.18,20.92,8.42l-1.28,1.25-1.52.94c-3-1.57-5.58-1-7.54,1.67-.38.52.15,1.71.26,2.6l7.27-4.15c3.75,5.88,0,9.64-3.78,13.42l-6.46,4.09C-135.22,833.29-140.33,813.84-150.63,807.28Z" transform="translate(476.21 -37.97)"/><path class="cls-7" d="M-104.17,800.92c-4.64-8.6-15.57-1.58-20.92-8.42l-8.81-16.23C-119.61,770.78-102.21,785.21-104.17,800.92Z" transform="translate(476.21 -37.97)"/><path class="cls-6" d="M-144.66,963.24c4.4-1.06,8.73-4.65,13.29-.4C-135.67,973.25-136.77,973.29-144.66,963.24Z" transform="translate(476.21 -37.97)"/><path class="cls-10" d="M395.34,512.22c1,4.44.88,7.85-5.26,6.09-.84-1.1-1.67-2.21-2.5-3.31C389.57,512.43,390.67,507.34,395.34,512.22Z" transform="translate(476.21 -37.97)"/><path class="cls-7" d="M-117.22,820.74l6.46-4.09c1.08,2.23,2.45,4.8-.26,6.47S-115.48,822.44-117.22,820.74Z" transform="translate(476.21 -37.97)"/><path class="cls-7" d="M-87.42,946l3,.69-1.43,3.83c-.89-.54-2.25-.91-2.55-1.68S-87.83,947-87.42,946Z" transform="translate(476.21 -37.97)"/><path class="cls-6" d="M-150,967.34c-.08-4.06.73-6.86,5.58-3.92Z" transform="translate(476.21 -37.97)"/><path class="cls-6" d="M-116.43,945.48c2.93-2,4.59.06,6.26,2Z" transform="translate(476.21 -37.97)"/><path class="cls-13" d="M263.47,563.11c-2.24-3.58-.19-4,2.79-3.83Z" transform="translate(476.21 -37.97)"/><path class="cls-9" d="M1726.27,715c-3.08-8-26.15,2.52-16.24-17.14,3.58-7.11-4.58-19.68,6-21.18,10.1-1.44,14.64,13.1,25.19,16.35,4.06,1.25,1,7.81-2.34,11-4.12,3.82-8.5,7.35-12.77,11l.13-1Z" transform="translate(476.21 -37.97)"/><path class="cls-9" d="M1496.83,785c-10.95,9.82-22.91,8.74-35.26,3.23C1472.75,780.91,1484.41,778.82,1496.83,785Z" transform="translate(476.21 -37.97)"/><path class="cls-9" d="M1456.24,787.54l-9.33,6.28c-5-2.21-12.67-4.76-7.11-11.13C1446.14,775.43,1451.8,782,1456.24,787.54Z" transform="translate(476.21 -37.97)"/><path class="cls-9" d="M1549.81,749.27c-3.75,2.33-7.62,4.06-11.55.59a2.51,2.51,0,0,1,.61-4.42c4.71-2.32,8,.39,11,3.64Z" transform="translate(476.21 -37.97)"/><path class="cls-8" d="M1636.86,541c-3.73-7.34,4.82-6.38,6.71-9.92C1648.84,539.42,1642,539.62,1636.86,541Z" transform="translate(476.21 -37.97)"/><path class="cls-9" d="M1702.7,617.1c.27,1.11,1.06,2.53.65,3.22s-2,.63-3.15.9c-.26-1.1-1.06-2.53-.65-3.22S1701.6,617.37,1702.7,617.1Z" transform="translate(476.21 -37.97)"/><path class="cls-8" d="M1652.52,524.21c3.91-3.37,7.47-2.26,10.88.83Q1657.55,530.22,1652.52,524.21Z" transform="translate(476.21 -37.97)"/><path class="cls-9" d="M1696.91,720.93c.27,1.11,1.08,2.53.66,3.22s-2,.65-3.14.92c-.28-1.1-1.09-2.52-.67-3.2S1695.81,721.21,1696.91,720.93Z" transform="translate(476.21 -37.97)"/><path class="cls-9" d="M1693.07,585.17l3.31-.85c.27,1.1,1.07,2.54.65,3.22s-2.06.66-3.16.94C1693.6,587.38,1693.33,586.28,1693.07,585.17Z" transform="translate(476.21 -37.97)"/><path class="cls-5" d="M1559.28,755.93l-1.2,1.08-1.31,1-7-8.69,0-.19C1555,748.55,1557.23,752.13,1559.28,755.93Z" transform="translate(476.21 -37.97)"/><path class="cls-5" d="M1550.62,762.64c-3.14.58-5.19-1-6.8-3.42C1547,758.6,1548.9,760.41,1550.62,762.64Z" transform="translate(476.21 -37.97)"/><path class="cls-9" d="M1312.94,376.73c-.77-1-1.53-2-2.29-3-9.63-6.83-18.09-12.65-5.49-25.7,7.34-7.59,4.32-17.52-6.1-22.89-11.66-6-23.51-7-35.44-.63l-14.23,6.12c-1.4-1.22-2.66-3.26-4.23-3.55-46.27-8.42-81-39.4-120.26-61.43-21.35-12-43.12-20-68.8-18.86-16.58.73-33.26-7.06-50.65-1.6-5,1.55-8.8-3.73-11.77-7.88l10.64-3.79c39.47-9.61,78.9-7.12,118.11,1.23,10,2.12,19.92,4.74,25.27,16.42,4.63,10.14,13.57,7.57,22.37,3.08,21.25-10.87,29.5-6.9,35.77,16.07,5.14,18.85,27.18,38.07,46.62,40.6,17,2.22,33.74-.49,50-4.52,18.22-4.54,26.77-30.66,14.87-41.81,18.44-8,38.33-8.43,57.8-11,2.88,17.4-10.29,8.37-16.66,9.7-4.62,1-11.44-1.24-11.42,5.66,0,5.28,6.75,5.41,10.52,4.58,17.15-3.79,29.7,3.12,40.27,15.71,2.91,3.47,6.4,3.05,9.92.87,7.67.44,17.45-3.75,19.31,9.5.14,1,7.75,1.16,11.89,1.23,11.44.19,23-4.23,34.32.79l0,.12c-7.14,7.8-18,9.19-26.19,15.18h0c-6.3-5.2-12.61-10.46-18.81.12,5.51,6.12-3,10.36-2.12,15.86l-11.95,9.13c-12.34-1.48-24.06,6.57-36.8,2-5.24-1.9-10.67-1.56-12.76-8.72-3.41-11.69-13.39-6.43-20.75-6.32-9.08.13-15.36,5.25-16.89,14.53-1.63,9.89-2.42,19.94-8,28.67Z" transform="translate(476.21 -37.97)"/><path class="cls-6" d="M1407.71,290.11c-3.52,2.18-7,2.6-9.92-.87-10.57-12.59-23.12-19.5-40.27-15.71-3.77.83-10.5.7-10.52-4.58,0-6.9,6.8-4.69,11.42-5.66,6.37-1.33,19.54,7.7,16.66-9.7,8-5.93,18.39-7.43,25.76-14.66,2.72-2.66,7.05-7.52,10.79-2.27,3,4.21.76,9.44-2.16,13.87C1401.07,263.32,1400.08,276.56,1407.71,290.11Z" transform="translate(476.21 -37.97)"/><path class="cls-9" d="M1473.23,301.63c5.11-2.66,10.59-5.42,13.47,2.3a6.39,6.39,0,0,1-4.6,8.71c-8.68,1.56-7-6.34-8.89-10.89Z" transform="translate(476.21 -37.97)"/><path class="cls-18" d="M1398.13,201.1c-2.44-.94-7.3,1.24-7-3,.39-4.86,4.16-4.87,7.72-2.07C1398.64,197.73,1398.38,199.41,1398.13,201.1Z" transform="translate(476.21 -37.97)"/><path class="cls-9" d="M1317.25,264.62l-5.31-.74Z" transform="translate(476.21 -37.97)"/><path class="cls-10" d="M1270.62,253.18c-1,.7-2.06,1.41-3.07,2.13C1267,252.4,1268.11,251.76,1270.62,253.18Z" transform="translate(476.21 -37.97)"/><path class="cls-5" d="M-330.54,1105.91c-.7-2.6.35-5.05,2.73-5,1.42,0,2.83,2.78,4.23,4.32Z" transform="translate(476.21 -37.97)"/><polygon class="cls-12" points="293.63 1146.38 294.56 1147.11 293.72 1147.56 293.63 1146.38"/><path class="cls-13" d="M991.51,234.41c-31.6,12.92-63.78,17.32-97,6.62-5.28-1.7-10.61-3.25-15.93-4.86,0,0,0-1,0-1q3.09-2.52,6.19-5c19.67-.46,22.62-16.66,28.4-30.19,2.72,3.37,5,7.17,10.58,5.63,7.4-2.05,7.65.83,4.22,6.44-6.61,10.84.62,13.35,9.15,13.72,14.77.64,28.6,8.83,44,4.89C984.12,229.86,988.05,233,991.51,234.41Z" transform="translate(476.21 -37.97)"/><path class="cls-5" d="M1176,214.19c5.62-2.31,10.51-2.6,12.65,4.62l7.34,12C1182.8,231.88,1173.32,230.39,1176,214.19Z" transform="translate(476.21 -37.97)"/><path class="cls-13" d="M1004.32,233.54l-10.64,3.79c-.79-1-1.59-2-2.38-2.92C995.47,231.51,999.55,227.45,1004.32,233.54Z" transform="translate(476.21 -37.97)"/><path class="cls-10" d="M1137.64,194.71c2,1.51,6.4-.08,5.81,4.63-3.09,1.51-6.21,2.83-9.49.45Z" transform="translate(476.21 -37.97)"/><path class="cls-10" d="M1144.28,203a5.82,5.82,0,0,1,2,1.61l-2.79,1.27Z" transform="translate(476.21 -37.97)"/><path class="cls-9" d="M-176.73,1003c-5.58-5.2-4.29-15.64-13.68-17.93,19.54-14.11,21.39,10.31,35.23,13.18C-163.68,1004.57-171.33,996.92-176.73,1003Z" transform="translate(476.21 -37.97)"/><path class="cls-6" d="M-178.49,934.13c.11-11-7.19-7.83-13.3-6.91,2.56-6.09,6.07-9.93,13.76-9.6,10.57.45,18.55-5.09,24.35-13.79,5.87,12.84,15.67,22.77,24.63,33.33-7.56,6.94-12.24-5.89-19.75-2.88-2.43,1-7.13-5.25-9.58-.38C-165.35,947.79-171.82,936.15-178.49,934.13Z" transform="translate(476.21 -37.97)"/><path class="cls-12" d="M-201.35,909.45c5.07-6.81,9.95-3.11,14.84.25,2.45,3.43,5,3.85,7.71.28,13.38-7.42-3.41-16.63,1.45-24.55a4.44,4.44,0,0,1,2.94-2c2.17,2.41,4.36,4.78,8.12,3.74l12.61,16.67c-5.8,8.7-13.78,14.24-24.35,13.79-7.69-.33-11.2,3.51-13.76,9.6Z" transform="translate(476.21 -37.97)"/><path class="cls-6" d="M-179.06,881.84c-5.36-6.18-10.71-19.61-16.81-.83-2,6.24-8.37,3.87-11.09,7.73-16.3-11.7-16.3-11.7,6.17-23.41C-181.93,861.69-176.51,865.8-179.06,881.84Z" transform="translate(476.21 -37.97)"/><path class="cls-6" d="M-290.75,792c7.8,4.7,32.09-7.27,18.87,18.67-3.7-10.72-15.89-8.86-22.55-15.2Z" transform="translate(476.21 -37.97)"/><path class="cls-5" d="M-294.43,795.45l-8.49-2.93c2.76-3,5.57-5.77,10.14-3.58.72,1,1.4,2,2,3Z" transform="translate(476.21 -37.97)"/><path class="cls-6" d="M-191.65,790.65c3.79.31,8.08-3.64,11.32,1.33C-184.65,796.15-188.41,795.62-191.65,790.65Z" transform="translate(476.21 -37.97)"/><path class="cls-6" d="M-166.29,887.16c-3.76,1-6-1.33-8.12-3.74C-168.72,878.2-167.38,882.42-166.29,887.16Z" transform="translate(476.21 -37.97)"/><path class="cls-6" d="M-234.64,789.71c4.34-1.19,8.21-.49,11.43,2.83C-228.1,796-231.82,794.66-234.64,789.71Z" transform="translate(476.21 -37.97)"/><path class="cls-6" d="M-205.35,795.79a2.77,2.77,0,0,1,1.88-1.38c.16,1.08.34,2.16.52,3.24Z" transform="translate(476.21 -37.97)"/><path class="cls-6" d="M-211.15,796.07l5.78.51Q-208.25,796.31-211.15,796.07Z" transform="translate(476.21 -37.97)"/><path class="cls-6" d="M-279.8,810.68l5.7,1.42Z" transform="translate(476.21 -37.97)"/><path class="cls-13" d="M1540.19,383.23c5.94,3.34,13.41,4.27,17.29,10.9-12.57,12.82-29.16,16.41-45.76,20-13.79-31.45-13.79-31.42,21.18-29.78C1535.3,384.47,1537.75,383.63,1540.19,383.23Z" transform="translate(476.21 -37.97)"/><path class="cls-5" d="M1443,367.35l-21.08-2.82c-3.35-19.7,15.21-16.74,24.09-20.4,14.26-5.89,17.4,8.6,21.74,18.48Z" transform="translate(476.21 -37.97)"/><path class="cls-6" d="M1590.29,467.41c-6.18-7.3-14.38.67-21.07-2.79,2.4-7.71,0-14.1-5.39-19.66,23.45-11.87,29.57,4.61,35.36,21.62Z" transform="translate(476.21 -37.97)"/><path class="cls-11" d="M724.59,244.85c5.59-6.36,14.35-.32,20.33-5.19L761.3,230c20.65-11.08,25.73,7.16,34.57,18.33-2.62,3.89-6.5,10.53-10.42,4.21-7.5-12.1-14-6.74-22.16-1.85C749.05,259.18,735.62,259.21,724.59,244.85Z" transform="translate(476.21 -37.97)"/><path class="cls-3" d="M727.84,279.45l9.12,12L728.71,293l-6.87-9Z" transform="translate(476.21 -37.97)"/><path class="cls-12" d="M794.25,205.33a11.41,11.41,0,0,0-10.09-1.92c-3.92-4.47-6.9-9.12-.47-13.76,4.47-3.23,9.14-3.13,13.15,1C802.68,196.66,800.63,201.41,794.25,205.33Z" transform="translate(476.21 -37.97)"/><path class="cls-7" d="M1426.12,332.92c-.91-5.5,7.63-9.74,2.12-15.86,5.24-1.33,9.52.17,12.86,4.39C1437.7,327.35,1435.47,334.79,1426.12,332.92Z" transform="translate(476.21 -37.97)"/><path class="cls-5" d="M1441.1,321.45c-3.34-4.22-7.62-5.72-12.86-4.39,6.2-10.58,12.51-5.32,18.81-.12Z" transform="translate(476.21 -37.97)"/><path class="cls-10" d="M414.28,500.71c-1.76,7.07-5.69,10.54-13.26,8C399.49,496.22,409.47,502.74,414.28,500.71Z" transform="translate(476.21 -37.97)"/><path class="cls-6" d="M-121.1,939.78c-.18,1.19,1.79,2.9-.82,4.27-2.81,1.48-5.56,2.7-8.48,1.06-.48-.27-2.18-3.13.73-4.3S-124.32,937.63-121.1,939.78Z" transform="translate(476.21 -37.97)"/><path class="cls-12" d="M761.3,230l-16.38,9.71C746.69,230.21,750.77,224.64,761.3,230Z" transform="translate(476.21 -37.97)"/><path class="cls-11" d="M1612,526.8l-2.28-3.3c1.57-1.41,2.42-3,.86-4.92l0,.08c2.08-1.54,2.68-3.27.74-5.36l0,.06,8.68-4.9,9.25,9.84c-.26,8.1-1.37,15.4-12.49,13.31Z" transform="translate(476.21 -37.97)"/><path class="cls-11" d="M1592.78,757.19c4.68-1.68,8.86-1.32,12,3l-5.75,7.41A14.22,14.22,0,0,1,1592.78,757.19Z" transform="translate(476.21 -37.97)"/><path class="cls-11" d="M884.81,230.12q-3.1,2.5-6.19,5l-7.55-3.51C874.94,224.76,879.58,224.8,884.81,230.12Z" transform="translate(476.21 -37.97)"/><path class="cls-9" d="M1612,526.8l4.74,4.81-.84,6.45c-5.17.6-7.25-3.41-9.88-6.61Z" transform="translate(476.21 -37.97)"/><path class="cls-5" d="M-299.13,875.88l7.35,7c-13.86,9.27-24.93,5.4-34.13-7.26v.2C-316.91,858-308.07,879.34-299.13,875.88Z" transform="translate(476.21 -37.97)"/><path class="cls-5" d="M-325.91,875.57l-4.69,2.57-.42-2.41,5.1,0Z" transform="translate(476.21 -37.97)"/><path class="cls-18" d="M1086.52,990.13a13.86,13.86,0,0,1-.62,2.69c-1.94-.08-3-1.05-2.41-3.17C1084.49,989.8,1085.51,990,1086.52,990.13Z" transform="translate(476.21 -37.97)"/><path class="cls-7" d="M1358.11,838.77l5.64-4.48c2,.09,3.38.8,1.68,2.79C1363.53,839.32,1361,840.22,1358.11,838.77Z" transform="translate(476.21 -37.97)"/><path class="cls-7" d="M1348.36,841.08c2.23-3.56,5.16-3.09,8.3-1.46Z" transform="translate(476.21 -37.97)"/><path class="cls-3" d="M447,943.16c5.29-5.27,12.41-4.56,18.93-2.51,11.85,3.71,23.36,8.51,35.06,12.72,4.63,1.67,7.45,4.49,7,9.64s-3.78,7.69-8.49,8.54c-11.66,2.07-23.29,5.17-35,5.65a23.62,23.62,0,0,1-23.63-15.41C438.21,955,440.21,948.24,447,943.16Z" transform="translate(476.21 -37.97)"/><path class="cls-3" d="M743.32,1051.89c-26.36,23.47-55.67,40-92.34,39.24,19.82-20.32,47-30.17,68.69-48C729.11,1035.41,738.52,1040.48,743.32,1051.89Z" transform="translate(476.21 -37.97)"/><path class="cls-3" d="M322.1,1006c11.19-3.37,14.87,5.31,19.65,12.23-.79,1.65-1.59,3.31-2.37,5-4.59,9.7-9.46,19.24-22.66,17.63s-9.93-13.46-12.79-21.47C313.31,1019.44,321.84,1018.34,322.1,1006Z" transform="translate(476.21 -37.97)"/><path class="cls-11" d="M572.93,734.23c3.3-1.62,7.22-4.5,9.82-.1,3.26,5.52.61,11.24-3,15.54s-7,.74-8.86-2.44C568.33,742.72,567.11,737.76,572.93,734.23Z" transform="translate(476.21 -37.97)"/><path class="cls-3" d="M604.15,1066.14c3,5,.67,9.08-2.23,12.1-3.77,3.92-6.7.41-8.65-2.73-2.45-3.92-3.36-8.45,1.24-11.38C598.05,1061.87,601.54,1063.74,604.15,1066.14Z" transform="translate(476.21 -37.97)"/><path class="cls-3" d="M275.3,1012.69c9.25-2.3,18.68-5.94,26.34,3.54C292.25,1019.59,282.83,1023.12,275.3,1012.69Z" transform="translate(476.21 -37.97)"/><path class="cls-3" d="M435.46,891.72c-.26-1.11-1.06-2.52-.64-3.22s2-.63,3.14-.9c.27,1.11,1.07,2.53.66,3.22S436.57,891.45,435.46,891.72Z" transform="translate(476.21 -37.97)"/><path class="cls-3" d="M754.42,1046.6l-7.44,2.55c-.54-2.21-2.26-4.89.62-6.36C751.26,1040.92,752.61,1044.46,754.42,1046.6Z" transform="translate(476.21 -37.97)"/><path class="cls-3" d="M651.43,1091.1l-7.49,7.66C641.38,1091.26,643.27,1088.12,651.43,1091.1Z" transform="translate(476.21 -37.97)"/><path class="cls-14" d="M1143.63,677c-.3.39-.68,1.14-.87,1.1a4.71,4.71,0,0,1-1.37-.92c.3-.39.68-1.14.87-1.1A4.52,4.52,0,0,1,1143.63,677Z" transform="translate(476.21 -37.97)"/><path class="cls-10" d="M759.82,1062.48c5.06-6.88,13.22-4.32,18.57-8.42,4.55-3.5,6.75-.49,7.88,3.45,1.31,4.57-.79,7.3-5.6,6.84C774.1,1063.72,767.23,1068.32,759.82,1062.48Z" transform="translate(476.21 -37.97)"/><path class="cls-7" d="M-107,803.23l-7.27,4.15c-.11-.89-.64-2.08-.26-2.6,2-2.63,4.55-3.24,7.54-1.67Z" transform="translate(476.21 -37.97)"/><path class="cls-6" d="M-178.8,910c-2.7,3.57-5.26,3.15-7.71-.28C-183.89,908.33-181.29,907.6-178.8,910Z" transform="translate(476.21 -37.97)"/></g></g></g></svg>