<svg xmlns="http://www.w3.org/2000/svg" viewBox="0 0 480 52.24"><defs><style>.cls-1{opacity:0.49;}.cls-2{fill:#444;}</style></defs><g id="Calque_2" data-name="Calque 2"><g id="Calque_1-2" data-name="Calque 1"><g class="cls-1"><path class="cls-2" d="M88.34,42.48c-5.16,0-8.17-1.36-9.91-3.59v12a41.31,41.31,0,0,0,9.91,1.13,40.82,40.82,0,0,0,10.3-1.24V38.34C97,40.89,93.91,42.5,88.34,42.48Z"/><path class="cls-2" d="M230.11,27.85l-13.81-7v8.38l13.49,6.84a17.24,17.24,0,0,0,.32-3.26Z"/><polygon class="cls-2" points="192.19 29.65 178.87 22.89 178.87 32.28 192.19 39.04 192.19 29.65"/></g><path class="cls-2" d="M27.33,23.12h24.5c-.17,6,1.08,15.16-3.2,19.94C39,55.29,13.4,55.14,3.35,43.58c-5-5-2.76-18-3.24-24.4a16.16,16.16,0,0,1,3.21-10C14.38-4.57,45.37-3.07,51.25,15.3H36.86c-4.47-8.15-23-6.83-22.94,3.88.7,4.73-2.3,18.17,3.35,20.77,6.5,4.2,21.76,2.84,20.76-7.6H27.33Z"/><polygon class="cls-2" points="285.8 0.73 233.98 0.73 233.98 9.95 253.23 9.95 253.23 51.53 266.55 51.53 266.55 9.95 285.8 9.95 285.8 0.73"/><path class="cls-2" d="M330.91,51.53h16.14L330,30.42c7.84-1.52,13.86-5.37,14.06-14.53C343.7-1.71,321.94.31,306.9.77V.69H293.58V51.53H306.9V31c2.59.08,5.38.21,8.23.27Zm-24-41.61h16.57c3.84-.06,6.92,2.12,6.91,6s-3.1,6-6.91,6H306.9Z"/><polygon class="cls-2" points="405.82 9.95 405.82 0.73 371.79 0.73 363.29 0.73 358.47 0.73 358.47 51.53 363.29 51.53 371.79 51.53 405.82 51.53 405.82 42.31 371.79 42.31 371.79 30.92 400.47 30.92 400.47 21.69 371.79 21.69 371.79 9.95 405.82 9.95"/><polygon class="cls-2" points="462.45 0.73 448.99 34.97 435.52 0.73 417.97 0.73 417.97 51.53 430.08 51.53 430.08 16.13 443.11 45.87 454.87 45.87 467.9 15.45 467.9 51.53 480 51.53 480 0.73 462.45 0.73"/><path class="cls-2" d="M114.15,18.93c0-25.24-51.67-25.24-51.62,0,.41,6.48-1.66,19.06,3.21,24.25a22.47,22.47,0,0,0,12.69,7.74v-12a12.16,12.16,0,0,1-2.16-6.6H100.4a12.7,12.7,0,0,1-1.76,6.05V50.81A22.35,22.35,0,0,0,111,43.18C115.83,37.94,113.7,25.45,114.15,18.93ZM88.34,9.78c6.14,0,11.93,2.64,12,8.91-.09,1.44-.07,2.93,0,4.43h-24c0-1.5.06-3,0-4.43C76.41,12.42,82.21,9.74,88.34,9.78Z"/><path class="cls-2" d="M230.11,27.85V18.41A15.2,15.2,0,0,0,222.84,5Q215.57.2,202.25.2H178.87V22.89l13.32,6.76h0l20,10.15c-2.36,1.32-5.56,2-9.64,2H192.19V39l-13.32-6.76V51H202.2a45,45,0,0,0,15.48-2.29,19.93,19.93,0,0,0,9.31-6.4,14.9,14.9,0,0,0,2.8-6.26L216.3,29.22h0L192.19,17V9.43h10.35q6.57,0,10.16,2.27a7.19,7.19,0,0,1,3.6,6.43v2.71Z"/><polygon class="cls-2" points="140.6 42.31 140.6 0.73 127.28 0.73 127.28 51.53 133.21 51.53 140.6 51.53 174.63 51.53 174.63 42.31 140.6 42.31"/></g></g></svg>