<svg xmlns="http://www.w3.org/2000/svg" viewBox="0 0 754.59 367.26"><defs><style>.cls-1{fill:none;stroke:#b5ad21;stroke-miterlimit:10;stroke-width:3px;}</style></defs><g id="Calque_2" data-name="Calque 2"><g id="Calque_1-2" data-name="Calque 1"><path class="cls-1" d="M111.47,71.52h74.85v30.32q0,17.5-9.8,30.58t-27.4,20.28q-17.61,7.2-41.36,7.21-23.91,0-41.81-6.78T38.18,134a44.68,44.68,0,0,1-9.87-28.77V59.46q0-17.51,9.8-30.53T65.51,8.71Q83.1,1.5,106.87,1.5a105.48,105.48,0,0,1,35.71,5.76,76.58,76.58,0,0,1,27.1,16.12,52,52,0,0,1,14.85,24.23H140.58q-3.27-7.57-13-11.69a52.83,52.83,0,0,0-20.71-4.11q-16.49,0-26.44,7.58a24,24,0,0,0-10,20.07v45.79q0,11,10.25,17.67t27,6.67q16.49,0,26.43-7.2t9.95-20.12V99.7H111.47Z"/><path class="cls-1" d="M297.84,159.91q-23.76,0-41.5-7.1t-27.55-20q-9.81-12.91-9.8-30.1v-44q0-17.28,9.8-30.15t27.55-20q17.75-7.09,41.5-7.1t41.51,7.1q17.75,7.1,27.55,20t9.8,30.15v44a48.42,48.42,0,0,1-9.8,30.1q-9.81,12.93-27.55,20T297.84,159.91Zm0-29.25q16.64,0,26.66-7.47a23.47,23.47,0,0,0,10-19.75V58a23.4,23.4,0,0,0-10-19.8q-10-7.43-26.66-7.42t-26.65,7.42a23.39,23.39,0,0,0-10,19.8v45.47a23.45,23.45,0,0,0,10,19.75Q281.21,130.66,297.84,130.66Z"/><polygon class="cls-1" points="457.49 130.13 457.49 3.1 416.8 3.1 416.8 158.31 434.92 158.31 457.49 158.31 561.44 158.31 561.44 130.13 457.49 130.13"/><path class="cls-1" d="M653.07,159.91a201.75,201.75,0,0,1-30.22-2.24,166.3,166.3,0,0,1-27.7-6.57,123.47,123.47,0,0,1-23.31-10.41l18.86-24.12a105.79,105.79,0,0,0,28.81,11.37,140.37,140.37,0,0,0,33.56,4q19.89,0,30.89-4.86t11-13.71v-.11a11.57,11.57,0,0,0-5.5-10.3Q684,99.39,675,97.68t-19.53-2.89q-12.62-1.38-25.54-3.47a104.27,104.27,0,0,1-23.76-6.61,42.58,42.58,0,0,1-17.45-13q-6.6-8.43-6.61-22.53v-.1q0-22.74,20.79-35.17T661.68,1.5a157,157,0,0,1,35.64,4.22,152.42,152.42,0,0,1,33.71,12L713.81,42.49a123.38,123.38,0,0,0-26.07-9.66,108.44,108.44,0,0,0-26.06-3.36q-18.7,0-29,4.43T622.48,46.33v.11a12.51,12.51,0,0,0,6.09,11.31q6.07,3.86,15.89,5.71t21.08,3.47q12.48,1.71,24.8,4.22a103.52,103.52,0,0,1,22.58,7.2,41.31,41.31,0,0,1,16.33,12.92q6.09,8.22,6.09,21.35v.21q0,22.42-21.53,34.75T653.07,159.91Z"/><polygon class="cls-1" points="159.81 210.55 1.5 210.55 1.5 238.73 60.31 238.73 60.31 365.76 101 365.76 101 238.73 159.81 238.73 159.81 210.55"/><path class="cls-1" d="M297.62,365.76h49.3l-51.59-64a67,67,0,0,0,14.17-4.25q13.37-5.78,20.87-16.23a43.76,43.76,0,0,0,.07-48.89Q323,222,309.58,216.21t-31.41-5.77h-94.6V365.76h40.69V303.31h24.68ZM224.26,238.62H274.9q9.64,0,15.37,5A16.77,16.77,0,0,1,296,256.88a17.19,17.19,0,0,1-5.87,13.23q-5.72,5-15.22,5H224.26Z"/><polygon class="cls-1" points="526.47 238.73 526.47 210.55 422.51 210.55 396.52 210.55 381.82 210.55 381.82 365.76 396.52 365.76 422.51 365.76 526.47 365.76 526.47 337.57 422.51 337.57 422.51 302.78 510.13 302.78 510.13 274.6 422.51 274.6 422.51 238.73 526.47 238.73"/><polygon class="cls-1" points="699.48 210.55 658.34 315.16 617.2 210.55 563.59 210.55 563.59 365.76 600.57 365.76 600.57 257.6 640.37 348.46 676.31 348.46 716.11 255.54 716.11 365.76 753.09 365.76 753.09 210.55 699.48 210.55"/></g></g></svg>