<svg xmlns="http://www.w3.org/2000/svg" viewBox="0 0 1466.04 158.41"><defs><style>.cls-1{fill:#b5ad21;}</style></defs><g id="Calque_2" data-name="Calque 2"><g id="Calque_1-2" data-name="Calque 1"><path class="cls-1" d="M102.47,100.12h74.85v30.32q0,17.51-9.81,30.58t-27.4,20.28q-17.6,7.22-41.35,7.21-23.92,0-41.81-6.78T29.18,162.62a44.65,44.65,0,0,1-9.87-28.76V88.06q0-17.5,9.8-30.52t27.4-20.23Q74.1,30.1,97.86,30.1a105.25,105.25,0,0,1,35.72,5.77A76.51,76.51,0,0,1,160.68,52a52,52,0,0,1,14.85,24.23H131.58q-3.27-7.58-13-11.68a52.66,52.66,0,0,0-20.72-4.11q-16.47,0-26.43,7.58a24,24,0,0,0-10,20.06v45.8q0,11,10.25,17.66t27,6.67q16.49,0,26.43-7.2t9.95-20.12v-2.56H102.47Z" transform="translate(-19.31 -30.1)"/><path class="cls-1" d="M288.84,188.51q-23.76,0-41.5-7.1t-27.55-20Q210,148.48,210,131.29v-44q0-17.29,9.8-30.16t27.55-20q17.73-7.1,41.5-7.1t41.51,7.1q17.75,7.09,27.55,20t9.8,30.16v44a48.45,48.45,0,0,1-9.8,30.11q-9.81,12.91-27.55,20T288.84,188.51Zm0-29.25q16.64,0,26.66-7.47a23.45,23.45,0,0,0,10-19.75V86.57a23.4,23.4,0,0,0-10-19.8q-10-7.42-26.66-7.42t-26.65,7.42a23.39,23.39,0,0,0-10,19.8V132a23.44,23.44,0,0,0,10,19.75Q272.21,159.26,288.84,159.26Z" transform="translate(-19.31 -30.1)"/><path class="cls-1" d="M407.8,186.91V31.7h40.69V186.91Zm18.11,0V158.73H552.44v28.18Z" transform="translate(-19.31 -30.1)"/><path class="cls-1" d="M644.07,188.51a201.75,201.75,0,0,1-30.22-2.24,165.83,165.83,0,0,1-27.7-6.57,123.57,123.57,0,0,1-23.32-10.41l18.86-24.12a106.05,106.05,0,0,0,28.81,11.37,140.46,140.46,0,0,0,33.57,4q19.89,0,30.89-4.85T686,142v-.11a11.58,11.58,0,0,0-5.5-10.3Q675,128,666,126.28t-19.53-2.88q-12.62-1.4-25.54-3.47a104.79,104.79,0,0,1-23.76-6.62,42.51,42.51,0,0,1-17.45-13q-6.62-8.43-6.61-22.52v-.11q0-22.74,20.79-35.17T652.68,30.1a157,157,0,0,1,35.64,4.22,151.94,151.94,0,0,1,33.71,12L704.81,71.09a123.38,123.38,0,0,0-26.07-9.66,108.51,108.51,0,0,0-26.06-3.36q-18.7,0-29,4.43T613.48,74.93V75a12.55,12.55,0,0,0,6.08,11.32q6.09,3.84,15.89,5.71t21.09,3.47q12.48,1.69,24.8,4.21A103.7,103.7,0,0,1,703.92,107a41.2,41.2,0,0,1,16.33,12.91q6.09,8.22,6.09,21.35v.21q0,22.42-21.53,34.75T644.07,188.51Z" transform="translate(-19.31 -30.1)"/><path class="cls-1" d="M733.76,59.88V31.7H892.07V59.88Zm58.81,127V44.41h40.69v142.5Z" transform="translate(-19.31 -30.1)"/><path class="cls-1" d="M915.83,186.91V31.6h40.69V186.91ZM932,124.46V96.28h75.14q9.51,0,15.22-5A17.22,17.22,0,0,0,1028.25,78a16.77,16.77,0,0,0-5.72-13.24q-5.71-5-15.37-5H932V31.6h78.41q18,0,31.41,5.76t20.86,16.22A41.18,41.18,0,0,1,1070.13,78a40.84,40.84,0,0,1-7.5,24.44q-7.5,10.47-20.87,16.23t-31.33,5.76Zm97.86,62.45-52.42-67.25,43.51-4.91,58.22,72.16Z" transform="translate(-19.31 -30.1)"/><path class="cls-1" d="M1114.09,186.91V31.7h40.69V186.91Zm14.7-127V31.7h129.94V59.88Zm0,64.05V95.75h113.6v28.18Zm0,63V158.73h129.94v28.18Z" transform="translate(-19.31 -30.1)"/><path class="cls-1" d="M1390.6,136.31,1431.74,31.7h53.61V186.91h-37V66.39l1.49,6.84-41.29,96.39h-35.94l-41.28-94.26,1.48-9V186.91h-37V31.7h53.61Z" transform="translate(-19.31 -30.1)"/></g></g></svg>