<svg xmlns="http://www.w3.org/2000/svg" viewBox="0 0 1469.05 161.41"><defs><style>.cls-1{fill:none;stroke:#b5ad21;stroke-miterlimit:10;stroke-width:3px;}</style></defs><g id="Calque_2" data-name="Calque 2"><g id="Calque_1-2" data-name="Calque 1"><path class="cls-1" d="M84.66,71.52h74.85v30.32q0,17.5-9.8,30.58t-27.4,20.28q-17.59,7.2-41.36,7.21t-41.8-6.78Q21.24,146.35,11.38,134A44.63,44.63,0,0,1,1.5,105.25V59.46Q1.5,42,11.3,28.93T38.7,8.71Q56.3,1.5,80.06,1.5a105.44,105.44,0,0,1,35.71,5.76,76.63,76.63,0,0,1,27.11,16.12,52.12,52.12,0,0,1,14.85,24.23h-44q-3.27-7.57-13-11.69a52.91,52.91,0,0,0-20.72-4.11q-16.49,0-26.43,7.58a24,24,0,0,0-10,20.07v45.79q0,11,10.24,17.67t27,6.67q16.49,0,26.43-7.2t10-20.12V99.7H84.66Z"/><path class="cls-1" d="M271,159.91q-23.76,0-41.51-7.1t-27.55-20a48.42,48.42,0,0,1-9.8-30.1v-44q0-17.28,9.8-30.15t27.55-20Q247.28,1.51,271,1.5t41.5,7.1q17.74,7.1,27.55,20t9.8,30.15v44q0,17.19-9.8,30.1t-27.55,20Q294.79,159.9,271,159.91Zm0-29.25q16.62,0,26.65-7.47a23.45,23.45,0,0,0,10-19.75V58a23.39,23.39,0,0,0-10-19.8q-10-7.43-26.65-7.42t-26.66,7.42a23.4,23.4,0,0,0-10,19.8v45.47a23.47,23.47,0,0,0,10,19.75Q254.4,130.66,271,130.66Z"/><polygon class="cls-1" points="430.68 130.13 430.68 3.1 389.99 3.1 389.99 158.31 408.11 158.31 430.68 158.31 534.63 158.31 534.63 130.13 430.68 130.13"/><path class="cls-1" d="M626.26,159.91A201.75,201.75,0,0,1,596,157.67a165.94,165.94,0,0,1-27.69-6.57A123.29,123.29,0,0,1,545,140.69l18.86-24.12a106.05,106.05,0,0,0,28.81,11.37,140.44,140.44,0,0,0,33.56,4q19.9,0,30.89-4.86t11-13.71v-.11a11.56,11.56,0,0,0-5.49-10.3,40.29,40.29,0,0,0-14.48-5.28q-9-1.71-19.53-2.89Q616,93.41,603.1,91.32a104.21,104.21,0,0,1-23.77-6.61,42.55,42.55,0,0,1-17.44-13q-6.61-8.43-6.61-22.53v-.1q0-22.74,20.79-35.17T634.88,1.5a157,157,0,0,1,35.64,4.22,152.79,152.79,0,0,1,33.71,12L687,42.49a123.29,123.29,0,0,0-26.06-9.66,108.57,108.57,0,0,0-26.06-3.36q-18.72,0-29,4.43T595.67,46.33v.11a12.53,12.53,0,0,0,6.09,11.31q6.09,3.86,15.89,5.71t21.09,3.47q12.46,1.71,24.8,4.22a103.6,103.6,0,0,1,22.57,7.2,41.41,41.41,0,0,1,16.34,12.92q6.07,8.22,6.08,21.35v.21q0,22.42-21.53,34.75T626.26,159.91Z"/><polygon class="cls-1" points="874.27 3.1 715.96 3.1 715.96 31.28 774.77 31.28 774.77 158.31 815.46 158.31 815.46 31.28 874.27 31.28 874.27 3.1"/><path class="cls-1" d="M1012.08,158.31h49.3l-51.6-64A67.13,67.13,0,0,0,1024,90.1q13.36-5.77,20.87-16.23a40.9,40.9,0,0,0,7.49-24.44A41.17,41.17,0,0,0,1044.9,25Q1037.47,14.53,1024,8.76T992.63,3H898V158.31h40.69V95.86H963.4ZM938.72,31.17h50.64q9.64,0,15.37,5a16.77,16.77,0,0,1,5.72,13.24,17.19,17.19,0,0,1-5.87,13.23q-5.72,5-15.22,5H938.72Z"/><polygon class="cls-1" points="1240.93 31.28 1240.93 3.1 1136.97 3.1 1110.98 3.1 1096.28 3.1 1096.28 158.31 1110.98 158.31 1136.97 158.31 1240.93 158.31 1240.93 130.13 1136.97 130.13 1136.97 95.33 1224.59 95.33 1224.59 67.15 1136.97 67.15 1136.97 31.28 1240.93 31.28"/><polygon class="cls-1" points="1413.94 3.1 1372.8 107.71 1331.66 3.1 1278.05 3.1 1278.05 158.31 1315.03 158.31 1315.03 50.15 1354.83 141.01 1390.77 141.01 1430.57 48.09 1430.57 158.31 1467.55 158.31 1467.55 3.1 1413.94 3.1"/></g></g></svg>