<svg xmlns="http://www.w3.org/2000/svg" viewBox="0 0 751.59 357.62"><defs><style>.cls-1{fill:#b5ad21;}</style></defs><g id="Calque_2" data-name="Calque 2"><g id="Calque_1-2" data-name="Calque 1"><path class="cls-1" d="M110.56,70h74.85v30.32q0,17.5-9.8,30.58t-27.4,20.28q-17.6,7.2-41.36,7.21t-41.8-6.78q-17.91-6.78-27.77-19.11a44.63,44.63,0,0,1-9.88-28.77V58q0-17.51,9.8-30.53T64.6,7.21Q82.2,0,106,0a105.44,105.44,0,0,1,35.71,5.76,76.63,76.63,0,0,1,27.11,16.12,52.12,52.12,0,0,1,14.85,24.23h-44q-3.27-7.57-13-11.69A52.91,52.91,0,0,0,106,30.31q-16.48,0-26.43,7.58A24,24,0,0,0,69.58,58v45.79q0,11,10.24,17.67t27,6.67q16.49,0,26.43-7.2t9.95-20.12V98.2H110.56Z"/><path class="cls-1" d="M296.94,158.41q-23.76,0-41.51-7.1t-27.55-20a48.42,48.42,0,0,1-9.8-30.1v-44q0-17.28,9.8-30.15t27.55-20Q273.17,0,296.94,0t41.5,7.1q17.74,7.1,27.55,20t9.8,30.15v44q0,17.19-9.8,30.1t-27.55,20Q320.7,158.4,296.94,158.41Zm0-29.25q16.62,0,26.65-7.47a23.45,23.45,0,0,0,10-19.75V56.47a23.39,23.39,0,0,0-10-19.8q-10-7.43-26.65-7.42t-26.66,7.42a23.4,23.4,0,0,0-10,19.8v45.47a23.47,23.47,0,0,0,10,19.75Q280.3,129.16,296.94,129.16Z"/><polygon class="cls-1" points="456.58 128.63 456.58 1.6 415.89 1.6 415.89 156.81 434.01 156.81 456.58 156.81 560.53 156.81 560.53 128.63 456.58 128.63"/><path class="cls-1" d="M652.16,158.41a201.75,201.75,0,0,1-30.22-2.24,166.3,166.3,0,0,1-27.7-6.57,123.47,123.47,0,0,1-23.31-10.41l18.86-24.12a106.05,106.05,0,0,0,28.81,11.37,140.44,140.44,0,0,0,33.56,4q19.9,0,30.89-4.86t11-13.71v-.11a11.56,11.56,0,0,0-5.49-10.3,40.29,40.29,0,0,0-14.48-5.28q-9-1.71-19.53-2.89Q641.91,91.91,629,89.82a104.27,104.27,0,0,1-23.76-6.61,42.64,42.64,0,0,1-17.45-13q-6.6-8.43-6.6-22.53v-.1q0-22.74,20.79-35.17T660.77,0a157,157,0,0,1,35.65,4.22,152.3,152.3,0,0,1,33.71,12L712.9,41a123.29,123.29,0,0,0-26.06-9.66A108.59,108.59,0,0,0,660.77,28q-18.71,0-28.95,4.43T621.57,44.83v.11a12.53,12.53,0,0,0,6.09,11.31q6.09,3.86,15.89,5.71t21.09,3.47q12.47,1.71,24.8,4.22A103.6,103.6,0,0,1,712,76.85a41.31,41.31,0,0,1,16.33,12.92q6.09,8.22,6.09,21.35v.21q0,22.42-21.53,34.75T652.16,158.41Z"/><polygon class="cls-1" points="158.31 202.42 0 202.42 0 230.6 58.81 230.6 58.81 357.62 99.5 357.62 99.5 230.6 158.31 230.6 158.31 202.42"/><path class="cls-1" d="M296.12,357.62h49.3l-51.59-64A67,67,0,0,0,308,289.41q13.37-5.76,20.87-16.22a43.76,43.76,0,0,0,.07-48.89q-7.43-10.45-20.86-16.23t-31.41-5.76h-94.6V357.62h40.69V295.18h24.68ZM222.76,230.49H273.4q9.64,0,15.37,5a16.74,16.74,0,0,1,5.72,13.23A17.21,17.21,0,0,1,288.62,262q-5.72,5-15.22,5H222.76Z"/><polygon class="cls-1" points="524.97 230.6 524.97 202.42 421.01 202.42 395.02 202.42 380.32 202.42 380.32 357.62 395.02 357.62 421.01 357.62 524.97 357.62 524.97 329.44 421.01 329.44 421.01 294.64 508.63 294.64 508.63 266.46 421.01 266.46 421.01 230.6 524.97 230.6"/><polygon class="cls-1" points="697.98 202.42 656.84 307.02 615.7 202.42 562.09 202.42 562.09 357.62 599.07 357.62 599.07 249.46 638.87 340.33 674.81 340.33 714.61 247.41 714.61 357.62 751.59 357.62 751.59 202.42 697.98 202.42"/></g></g></svg>