<svg xmlns="http://www.w3.org/2000/svg" viewBox="0 0 100.04 919.1"><defs><style>.cls-1{opacity:0.49;}.cls-2{fill:#444;}</style></defs><g id="Calque_2" data-name="Calque 2"><g id="Calque_1-2" data-name="Calque 1"><g class="cls-1"><path class="cls-2" d="M81.34,749.94c0,9.89-2.61,15.66-6.88,19h23a79.32,79.32,0,0,0,2.17-19,78.63,78.63,0,0,0-2.37-19.72H73.42C78.3,733.4,81.38,739.28,81.34,749.94Z"/><path class="cls-2" d="M53.33,478.5,39.91,504.93h16L69.05,479.1a32.45,32.45,0,0,0-6.24-.6Z"/><polygon class="cls-2" points="56.78 551.1 43.83 576.6 61.8 576.6 74.75 551.1 56.78 551.1"/></g><path class="cls-2" d="M44.28,866.76V819.85c11.45.34,29-2.07,38.17,6.14,23.42,18.5,23.14,67.45,1,86.7-9.63,9.63-34.55,5.28-46.73,6.19a31,31,0,0,1-19.14-6.14C-8.74,891.56-5.88,832.23,29.29,821v27.55c-15.6,8.57-13.06,44.15,7.43,43.94,9.07-1.34,34.8,4.4,39.77-6.42,8.05-12.44,5.44-41.67-14.55-39.75v20.48Z"/><polygon class="cls-2" points="1.39 371.85 1.39 471.08 19.05 471.08 19.05 434.22 98.67 434.22 98.67 408.71 19.05 408.71 19.05 371.85 1.39 371.85"/><path class="cls-2" d="M98.67,285.48V254.57L58.24,287.19c-2.91-15-10.27-26.55-27.81-26.94C-3.27,261,.59,302.64,1.48,331.46H1.33V357H98.67v-25.5H59.4c.15-5,.39-10.31.51-15.77ZM19,331.46V299.72c-.1-7.35,4.06-13.24,11.44-13.22S42,292.42,41.87,299.72v31.74Z"/><polygon class="cls-2" points="19.05 142.04 1.39 142.04 1.39 207.2 1.39 223.49 1.39 232.7 98.67 232.7 98.67 223.49 98.67 207.2 98.67 142.04 81.01 142.04 81.01 207.2 59.2 207.2 59.2 152.28 41.53 152.28 41.53 207.2 19.05 207.2 19.05 142.04"/><polygon class="cls-2" points="1.39 33.6 66.96 59.38 1.39 85.17 1.39 118.77 98.67 118.77 98.67 95.59 30.88 95.59 87.83 70.65 87.83 48.12 29.59 23.18 98.67 23.18 98.67 0 1.39 0 1.39 33.6"/><path class="cls-2" d="M36.25,700.52c-48.33-.09-48.33,98.94,0,98.85,12.41-.79,36.48,3.18,46.43-6.14,7.78-6.09,12.41-14.65,14.82-24.3h-23c-3.37,2.62-7.75,3.72-12.63,4.12v-46.2c4.39.36,8.38,1.27,11.59,3.37H97.3c-2.47-9.35-7-17.62-14.62-23.56C72.66,697.3,48.73,701.39,36.25,700.52ZM18.72,749.94c-.07-11.75,5.07-22.84,17.06-23,2.76.17,5.62.14,8.5,0v45.88c-2.88-.09-5.74-.11-8.5,0C23.79,772.79,18.64,761.69,18.72,749.94Z"/><path class="cls-2" d="M53.33,478.5H35.25q-16.59,0-25.73,13.91T.39,531.83V576.6H43.83l13-25.5h0l19.44-38.29c2.53,4.52,3.82,10.66,3.82,18.46V551.1H74.75l-13,25.5H97.67V531.92q0-17.77-4.38-29.64T81,484.45a28.82,28.82,0,0,0-12-5.35L55.94,504.93h0L32.53,551.1H18.05V531.27q0-12.56,4.35-19.45a13.78,13.78,0,0,1,12.31-6.89h5.2Z"/><polygon class="cls-2" points="81.01 649.88 1.39 649.88 1.39 675.39 98.67 675.39 98.67 664.03 98.67 649.88 98.67 584.73 81.01 584.73 81.01 649.88"/></g></g></svg>